SplineFontDB: 3.2
FontName: cerez
FullName: cerez
FamilyName: cerez
Weight: Regular
Copyright: GPL
Version: 20210926
ItalicAngle: 0
UnderlinePosition: -539
UnderlineWidth: 91
Ascent: 1709
Descent: 630
InvalidEm: 0
sfntRevision: 0x00010000
LayerCount: 2
Layer: 0 1 "Back" 1
Layer: 1 1 "Fore" 0
XUID: [1021 419 447965435 4292642]
StyleMap: 0x0040
FSType: 0
OS2Version: 0
OS2_WeightWidthSlopeOnly: 0
OS2_UseTypoMetrics: 0
CreationTime: 1431127310
ModificationTime: 1632655553
PfmFamily: 49
TTFWeight: 400
TTFWidth: 5
LineGap: 0
VLineGap: 0
Panose: 2 0 5 9 6 0 0 8 0 4
OS2TypoAscent: 1709
OS2TypoAOffset: 0
OS2TypoDescent: -630
OS2TypoDOffset: 0
OS2TypoLinegap: 0
OS2WinAscent: 1709
OS2WinAOffset: 0
OS2WinDescent: 630
OS2WinDOffset: 0
HheadAscent: 1709
HheadAOffset: 0
HheadDescent: -630
HheadDOffset: 0
OS2CapHeight: 1618
OS2XHeight: 1079
OS2Vendor: 'crz '
OS2CodePages: 6000019f.dfd70000
OS2UnicodeRanges: e00006ff.0000fcff.00000001.00000000
MarkAttachClasses: 1
DEI: 91125
TtTable: prep
PUSHW_1
 511
SCANCTRL
PUSHB_1
 1
SCANTYPE
SVTCA[y-axis]
MPPEM
PUSHB_1
 8
LT
IF
PUSHB_2
 1
 1
INSTCTRL
EIF
PUSHB_2
 70
 6
CALL
IF
POP
PUSHB_1
 16
EIF
MPPEM
PUSHB_1
 20
GT
IF
POP
PUSHB_1
 128
EIF
SCVTCI
PUSHB_1
 6
CALL
NOT
IF
EIF
PUSHB_1
 20
CALL
EndTTInstrs
TtTable: fpgm
PUSHB_1
 0
FDEF
PUSHB_1
 0
SZP0
MPPEM
PUSHB_1
 42
LT
IF
PUSHB_1
 74
SROUND
EIF
PUSHB_1
 0
SWAP
MIAP[rnd]
RTG
PUSHB_1
 6
CALL
IF
RTDG
EIF
MPPEM
PUSHB_1
 42
LT
IF
RDTG
EIF
DUP
MDRP[rp0,rnd,grey]
PUSHB_1
 1
SZP0
MDAP[no-rnd]
RTG
ENDF
PUSHB_1
 1
FDEF
DUP
MDRP[rp0,min,white]
PUSHB_1
 12
CALL
ENDF
PUSHB_1
 2
FDEF
MPPEM
GT
IF
RCVT
SWAP
EIF
POP
ENDF
PUSHB_1
 3
FDEF
ROUND[Black]
RTG
DUP
PUSHB_1
 64
LT
IF
POP
PUSHB_1
 64
EIF
ENDF
PUSHB_1
 4
FDEF
PUSHB_1
 6
CALL
IF
POP
SWAP
POP
ROFF
IF
MDRP[rp0,min,rnd,black]
ELSE
MDRP[min,rnd,black]
EIF
ELSE
MPPEM
GT
IF
IF
MIRP[rp0,min,rnd,black]
ELSE
MIRP[min,rnd,black]
EIF
ELSE
SWAP
POP
PUSHB_1
 5
CALL
IF
PUSHB_1
 70
SROUND
EIF
IF
MDRP[rp0,min,rnd,black]
ELSE
MDRP[min,rnd,black]
EIF
EIF
EIF
RTG
ENDF

StartChar: exclam
Encoding: 1 33 1
Width: 1302
VWidth: 1667
GlyphClass: 2
Flags: W
HStem: 0 312<524.859 777.141> 1598 20G<505 797>
VStem: 495 312<29.8594 282.141 923.579 1618>
LayerCount: 2
Fore
SplineSet
807 156 m 128,-1,1
 807 0 807 0 651 0 c 128,-1,2
 495 0 495 0 495 156 c 128,-1,3
 495 312 495 312 651 312 c 128,-1,0
 807 312 807 312 807 156 c 128,-1,1
547 494 m 1,4,-1
 506 1121 l 1,5,-1
 505 1618 l 1,6,-1
 797 1618 l 1,7,-1
 797 1121 l 1,8,-1
 755 494 l 1,9,-1
 547 494 l 1,4,-1
EndSplineSet
Validated: 1
EndChar

StartChar: quotedbl
Encoding: 2 34 2
Width: 1302
VWidth: 1667
GlyphClass: 2
Flags: W
HStem: 900 718<437 567 735 865>
VStem: 359 208<1302.95 1618> 437 130<900 1007.05> 735 208<1302.95 1618> 735 130<900 1007.05>
LayerCount: 2
Fore
SplineSet
567 900 m 5,0,-1
 437 900 l 5,1,-1
 359 1410 l 5,2,-1
 359 1618 l 5,3,-1
 567 1618 l 5,4,-1
 567 1410 l 5,5,-1
 567 900 l 5,0,-1
735 900 m 5,6,-1
 735 1410 l 5,7,-1
 735 1618 l 5,8,-1
 943 1618 l 5,9,-1
 943 1410 l 5,10,-1
 865 900 l 5,11,-1
 735 900 l 5,6,-1
EndSplineSet
Validated: 1
EndChar

StartChar: numbersign
Encoding: 3 35 3
Width: 1302
VWidth: 1911
GlyphClass: 2
Flags: W
HStem: 517 182<151 359 567 735 943 1151> 919 182<151 359 567 735 943 1151>
VStem: 359 208<309 517 699 919 1101 1309> 735 208<309 517 699 919 1101 1309>
LayerCount: 2
Fore
SplineSet
567 309 m 1,0,-1
 359 309 l 1,1,-1
 359 517 l 1,2,-1
 151 517 l 1,3,-1
 151 699 l 1,4,-1
 359 699 l 1,5,-1
 359 919 l 1,6,-1
 151 919 l 1,7,-1
 151 1101 l 1,8,-1
 359 1101 l 1,9,-1
 359 1309 l 1,10,-1
 567 1309 l 1,11,-1
 567 1101 l 1,12,-1
 735 1101 l 1,13,-1
 735 1309 l 1,14,-1
 943 1309 l 1,15,-1
 943 1101 l 1,16,-1
 1151 1101 l 1,17,-1
 1151 919 l 1,18,-1
 943 919 l 1,19,-1
 943 699 l 1,20,-1
 1151 699 l 1,21,-1
 1151 517 l 1,22,-1
 943 517 l 1,23,-1
 943 309 l 1,24,-1
 735 309 l 1,25,-1
 735 517 l 1,26,-1
 567 517 l 1,27,-1
 567 309 l 1,0,-1
735 699 m 1,28,-1
 735 919 l 1,29,-1
 567 919 l 1,30,-1
 567 699 l 1,31,-1
 735 699 l 1,28,-1
EndSplineSet
Validated: 1
EndChar

StartChar: dollar
Encoding: 4 36 4
Width: 1302
VWidth: 1667
GlyphClass: 2
Flags: W
HStem: 0 182<255 547 755 869.082> 1254 182<432.918 547 755 1151> 1598 20G<547 755>
VStem: 151 208<921.52 1191.46> 547 208<-182 0 189 590 846 1247 1436 1618> 943 208<244.544 514.48>
CounterMasks: 1 1c
LayerCount: 2
Back
SplineSet
-5242 3878 m 1,0,-1
 -5034 3878 l 1,1,-1
 -5034 3693 l 1,2,3
 -4638 3661 -4638 3661 -4638 3374 c 1,4,-1
 -4846 3374 l 1,5,6
 -4846 3504 -4846 3504 -5034 3529 c 1,7,-1
 -5034 3032 l 1,8,9
 -4638 2917 -4638 2917 -4638 2729 c 2,10,-1
 -4638 2584 l 2,11,12
 -4638 2297 -4638 2297 -5034 2265 c 1,13,-1
 -5034 2078 l 1,14,-1
 -5242 2078 l 1,15,-1
 -5242 2265 l 1,16,17
 -5638 2297 -5638 2297 -5638 2584 c 1,18,-1
 -5430 2584 l 1,19,20
 -5430 2455 -5430 2455 -5242 2429 c 1,21,-1
 -5242 2926 l 1,22,23
 -5638 3038 -5638 3038 -5638 3229 c 2,24,-1
 -5638 3374 l 2,25,26
 -5638 3661 -5638 3661 -5242 3693 c 1,27,-1
 -5242 3878 l 1,0,-1
-5242 3092 m 1,28,-1
 -5242 3529 l 1,29,30
 -5430 3503 -5430 3503 -5430 3374 c 2,31,-1
 -5430 3229 l 2,32,33
 -5430 3158 -5430 3158 -5242 3092 c 1,28,-1
-5034 2867 m 1,34,-1
 -5034 2429 l 1,35,36
 -4846 2455 -4846 2455 -4846 2584 c 2,37,-1
 -4846 2729 l 2,38,39
 -4846 2802 -4846 2802 -5034 2867 c 1,34,-1
-5165 162 m 152,-1,1
 -4873 162 -4873 162 -4873 323 c 2,2,-1
 -4873 468 l 2,3,4
 -4873 565 -4873 565 -5213 650 c 0,5,6
 -5665 764 -5665 764 -5665 968 c 2,7,-1
 -5665 1113 l 2,8,9
 -5665 1436 -5665 1436 -5165 1436 c 24,10,11
 -4665 1435 -4665 1435 -4665 1113 c 2,12,-1
 -4873 1113 l 2,13,14
 -4873 1275 -4873 1275 -5165 1274.5 c 152,-1,15
 -5457 1274 -5457 1274 -5457 1113 c 2,16,-1
 -5457 968 l 2,17,18
 -5457 872 -5457 872 -5117 786 c 24,19,20
 -4665 669 -4665 669 -4665 468 c 2,21,-1
 -4665 323 l 2,22,23
 -4665 0 -4665 0 -5165 0 c 24,24,25
 -5665 1 -5665 1 -5665 323 c 2,26,-1
 -5457 323 l 2,27,0
 -5457 162 -5457 162 -5165 162 c 152,-1,1
-5269 1617 m 1,28,-1
 -5061 1617 l 1,29,-1
 -5061 -183 l 1,30,-1
 -5269 -183 l 1,31,-1
 -5269 1617 l 1,28,-1
-2288.99902344 182 m 2,0,1
 -1996.99902344 182 -1996.99902344 182 -1996.99902344 364 c 2,2,3
 -1996.99902344 436 l 2,4,5
 -1996.99902344 543.979492188 -1996.99902344 543.979492188 -2341.99902344 642 c 0,6,7
 -2788.99902344 769 -2788.99902344 769 -2788.99902344 1000 c 2,8,-1
 -2788.99902344 1072 l 2,9,10
 -2788.99902344 1436 -2788.99902344 1436 -2288.99902344 1436 c 2,11,-1
 -1788.99902344 1436 l 1,12,-1
 -1788.99902344 1254 l 1,13,-1
 -2288.99902344 1254 l 2,14,15
 -2580.99902344 1254 -2580.99902344 1254 -2580.99902344 1072 c 2,16,-1
 -2580.99902344 1000 l 2,17,18
 -2580.99902344 892 -2580.99902344 892 -2235.99902344 794 c 0,19,20
 -1788.99902344 667 -1788.99902344 667 -1788.99902344 436 c 2,21,22
 -1788.99902344 364 l 2,23,24
 -1788.99902344 0 -1788.99902344 0 -2288.99902344 0 c 2,25,-1
 -2738.99902344 0 l 1,26,-1
 -2788.99902344 182 l 1,27,-1
 -2288.99902344 182 l 2,0,1
-2392.99902344 1618 m 1,28,-1
 -2184.99902344 1618 l 1,29,-1
 -2184.99902344 -182 l 1,30,-1
 -2392.99902344 -182 l 1,31,-1
 -2392.99902344 1618 l 1,28,-1
374.000976562 892 m 1,0,-1
 1166.00097656 667 l 1,1,-1
 958.000976562 544 l 1,2,-1
 166.000976562 769 l 1,3,-1
 374.000976562 892 l 1,0,-1
-572.999023438 562 m 1,0,-1
 -572.999023438 189 l 1,1,2
 -384.999023438 206 -384.999023438 206 -384.999023438 353 c 0,3,4
 -384.999023438 480 -384.999023438 480 -572.999023438 562 c 1,0,-1
-780.999023438 182 m 1,5,-1
 -780.999023438 659 l 1,6,7
 -1176.99902344 833 -1176.99902344 833 -1176.99902344 1084 c 0,8,9
 -1176.99902344 1392 -1176.99902344 1392 -780.999023438 1432 c 1,10,-1
 -780.999023438 1618 l 1,11,-1
 -572.999023438 1619 l 1,12,-1
 -572.999023438 1436 l 1,13,-1
 -306.999023438 1436 l 1,14,-1
 -306.999023438 1255 l 1,15,-1
 -572.999023438 1255 l 1,16,-1
 -572.999023438 778 l 1,17,18
 -176.999023438 603 -176.999023438 603 -176.999023438 353 c 0,19,20
 -177.999023438 42 -177.999023438 42 -572.999023438 4 c 1,21,-1
 -572.999023438 -182 l 1,22,-1
 -780.999023438 -182 l 1,23,-1
 -780.999023438 0 l 1,24,-1
 -1071.99902344 0 l 1,25,-1
 -1176.99902344 182 l 1,26,-1
 -780.999023438 182 l 1,5,-1
-780.999023438 874 m 1,27,-1
 -780.999023438 1248 l 1,28,29
 -968.999023438 1224 -968.999023438 1224 -968.999023438 1084 c 0,30,31
 -968.999023438 967 -968.999023438 967 -780.999023438 874 c 1,27,-1
166.000976562 0 m 1,0,-1
 1166.00097656 1436 l 1049
EndSplineSet
Fore
SplineSet
547 1618 m 5,0,-1
 755 1618 l 5,1,-1
 755 1436 l 5,2,-1
 1151 1436 l 5,3,-1
 1151 1254 l 5,4,-1
 755 1254 l 5,5,-1
 755 779 l 5,6,7
 1151 654 1151 654 1151 436 c 6,8,-1
 1151 364 l 6,9,10
 1151 40 1151 40 755 4 c 5,11,-1
 755 -182 l 5,12,-1
 547 -182 l 5,13,-1
 547 0 l 5,14,-1
 255 0 l 5,15,-1
 255 182 l 5,16,-1
 547 182 l 5,17,-1
 547 657 l 5,18,19
 151 782 151 782 151 1000 c 6,20,-1
 151 1072 l 6,21,22
 151 1396 151 1396 547 1432 c 5,23,-1
 547 1618 l 5,0,-1
547 846 m 5,24,-1
 547 1247 l 5,25,26
 359 1218 359 1218 359 1072 c 6,27,-1
 359 1000 l 6,28,29
 359 920 359 920 547 846 c 5,24,-1
755 590 m 5,30,-1
 755 189 l 5,31,32
 943 218 943 218 943 364 c 6,33,-1
 943 436 l 6,34,35
 943 516 943 516 755 590 c 5,30,-1
EndSplineSet
Validated: 1
EndChar

StartChar: percent
Encoding: 5 37 5
Width: 1302
VWidth: 1667
GlyphClass: 2
Flags: W
HStem: 110 157<781.672 1006.33> 582 141<786.176 1001.82> 895 157<295.672 520.328> 1367 141<300.176 515.824>
VStem: 151 143<1064.97 1355.75> 522 143<1064.97 1355.75> 637 143<279.969 570.754> 1008 143<279.969 570.754>
LayerCount: 2
Fore
SplineSet
780 501 m 2,0,-1
 780 332 l 2,1,2
 780 267 780 267 894 267 c 128,-1,3
 1008 267 1008 267 1008 332 c 2,4,-1
 1008 501 l 2,5,6
 1008 582 1008 582 894 582 c 128,-1,7
 780 582 780 582 780 501 c 2,0,-1
637 501 m 2,8,9
 637 723 637 723 894 723 c 128,-1,10
 1151 723 1151 723 1151 501 c 2,11,-1
 1151 332 l 2,12,13
 1151 110 1151 110 894 110 c 128,-1,14
 637 110 637 110 637 332 c 2,15,-1
 637 501 l 2,8,9
294 1286 m 2,16,-1
 294 1117 l 2,17,18
 294 1052 294 1052 408 1052 c 128,-1,19
 522 1052 522 1052 522 1117 c 2,20,-1
 522 1286 l 2,21,22
 522 1367 522 1367 408 1367 c 128,-1,23
 294 1367 294 1367 294 1286 c 2,16,-1
151 1286 m 2,24,25
 151 1508 151 1508 408 1508 c 128,-1,26
 665 1508 665 1508 665 1286 c 2,27,-1
 665 1117 l 2,28,29
 665 895 665 895 408 895 c 128,-1,30
 151 895 151 895 151 1117 c 2,31,-1
 151 1286 l 2,24,25
76 420 m 1,32,-1
 1131 1341 l 1,33,-1
 1226 1198 l 1,34,-1
 171 277 l 1,35,-1
 76 420 l 1,32,-1
EndSplineSet
Validated: 1
EndChar

StartChar: ampersand
Encoding: 6 38 6
Width: 1302
VWidth: 1667
GlyphClass: 2
Flags: W
HStem: 0 182<347.099 486> 1436 182<323.534 609.278>
VStem: 96 208<222.168 829.309> 130 172<1164.96 1409.6> 636 182<1304 1402.66>
LayerCount: 2
Back
SplineSet
508.5 1373 m 132,-1,1
 493 1373 493 1373 493 1356.5 c 132,-1,2
 493 1340 493 1340 508.5 1340 c 132,-1,3
 524 1340 524 1340 524 1356.5 c 132,-1,0
 524 1373 524 1373 508.5 1373 c 132,-1,1
311.5 1374 m 132,-1,5
 296 1374 296 1374 296 1357 c 132,-1,6
 296 1340 296 1340 311.5 1340 c 132,-1,7
 327 1340 327 1340 327 1357 c 132,-1,4
 327 1374 327 1374 311.5 1374 c 132,-1,5
529 1440 m 5,8,9
 459 1471 459 1471 393 1439 c 5,10,11
 389 1443 389 1443 385 1447 c 5,12,13
 461 1487 461 1487 536 1448 c 5,14,-1
 529 1440 l 5,8,9
343 1436 m 5,15,16
 346 1465 346 1465 374 1456 c 4,17,18
 381 1454 381 1454 383.5 1450 c 132,-1,19
 386 1446 386 1446 391 1440.5 c 132,-1,20
 396 1435 396 1435 387 1420 c 5,21,22
 384 1419 384 1419 382.5 1421.5 c 132,-1,23
 381 1424 381 1424 380 1428 c 4,24,25
 373 1455 373 1455 349 1440 c 4,26,27
 345 1437 345 1437 343 1436 c 5,15,16
529 1440 m 5,28,29
 554 1470 554 1470 573 1450 c 4,30,31
 578 1444 578 1444 579 1436 c 5,32,33
 576 1437 576 1437 565.5 1443.5 c 132,-1,34
 555 1450 555 1450 541 1438 c 5,35,-1
 533 1417 l 5,36,37
 531 1429 531 1429 529 1440 c 5,28,29
378 1433 m 5,38,39
 361 1425 361 1425 345.5 1408.5 c 132,-1,40
 330 1392 330 1392 323 1392 c 5,41,42
 336 1417 336 1417 374 1442 c 5,43,44
 376 1437 376 1437 378 1433 c 5,38,39
541 1438 m 5,45,46
 543 1439 543 1439 547 1443 c 5,47,48
 588 1417 588 1417 607 1382 c 5,49,50
 596.900390625 1387.04980469 596.900390625 1387.04980469 578.450195312 1406.52539062 c 132,-1,51
 560 1426 560 1426 541 1438 c 5,45,46
318.5 1387.5 m 132,-1,53
 322 1391 322 1391 323 1391.5 c 4,54,55
 326 1393 326 1393 331 1393 c 4,56,57
 408 1402 408 1402 433 1360 c 5,58,59
 444 1348 444 1348 432.5 1337.5 c 132,-1,60
 421 1327 421 1327 410 1335 c 4,61,62
 370 1362 370 1362 319 1338 c 5,63,64
 296 1334 296 1334 295 1352 c 132,-1,65
 294 1370 294 1370 304.5 1377 c 132,-1,52
 315 1384 315 1384 318.5 1387.5 c 132,-1,53
520 1390 m 4,66,67
 557 1405 557 1405 570.5 1394 c 132,-1,68
 584 1383 584 1383 590 1385.5 c 132,-1,69
 596 1388 596 1388 600.5 1385.5 c 132,-1,70
 605 1383 605 1383 608.5 1381.5 c 132,-1,71
 612 1380 612 1380 625 1367 c 132,-1,72
 638 1354 638 1354 623 1331 c 5,73,74
 561.434570312 1355.62597656 561.434570312 1355.62597656 544.217773438 1349.31347656 c 132,-1,75
 527 1343 527 1343 524 1342 c 132,-1,76
 521 1341 521 1341 517 1339 c 4,77,78
 495 1329 495 1329 489.5 1352 c 132,-1,79
 484 1375 484 1375 520 1390 c 4,66,67
596 1388 m 1028,80,-1
607 1382 m 1028,81,-1
426 1112 m 4,82,83
 538 1085 538 1085 609 1204 c 4,84,85
 633 1245 633 1245 623 1331 c 5,86,-1
 626 1336 l 5,87,88
 652 1266 652 1266 610 1186.5 c 132,-1,89
 568 1107 568 1107 483 1101 c 132,-1,90
 398 1095 398 1095 342.5 1148 c 132,-1,91
 287 1201 287 1201 287 1281 c 4,92,93
 287 1304 287 1304 290.5 1320 c 132,-1,94
 294 1336 294 1336 296 1346 c 5,95,96
 303 1335 303 1335 319 1338 c 5,97,98
 308 1333 308 1333 304 1329 c 5,99,100
 285 1276 285 1276 315 1204 c 132,-1,101
 345 1132 345 1132 426 1112 c 4,82,83
334 1263 m 5,102,-1
 342 1262 l 5,103,104
 345 1216 345 1216 381 1191 c 5,105,106
 442 1143 442 1143 516 1178 c 4,107,108
 571.041992188 1204.2109375 571.041992188 1204.2109375 582 1259 c 5,109,110
 583 1201 583 1201 529.5 1170 c 132,-1,111
 476 1139 476 1139 431.5 1153.5 c 132,-1,112
 387 1168 387 1168 365 1188 c 5,113,114
 332 1233 332 1233 334 1263 c 5,102,-1
1220 902 m 25,0,-1
 511 0 l 1,1,-1
 489 178 l 1,2,-1
 1011 1006 l 25,3,-1
 1220 902 l 25,0,-1
1207 144 m 25,4,-1
 397 1095 l 1,5,-1
 297 1002 l 25,6,-1
 1032 0 l 1,7,-1
 1207 144 l 25,4,-1
-1372 -3111 m 0,0,1
 -1372 -2979 -1372 -2979 -1534 -2979 c 128,-1,2
 -1696 -2979 -1696 -2979 -1696 -3111 c 0,3,4
 -1696 -3221 -1696 -3221 -1660 -3263 c 2,5,-1
 -1610 -3321 l 1,6,7
 -1587 -3313 -1587 -3313 -1562 -3307 c 0,8,9
 -1372 -3256 -1372 -3256 -1372 -3111 c 0,0,1
-1138 -3878 m 1,10,-1
 -802 -4268 l 1,11,-1
 -976 -4415 l 1,12,-1
 -1278 -4035 l 1,13,-1
 -1356 -4415 l 1,14,-1
 -1572 -4415 l 2,15,16
 -1912 -4415 -1912 -4415 -1912 -4051 c 2,17,-1
 -1912 -3700 l 2,18,19
 -1912 -3514 -1912 -3514 -1778 -3408 c 1,20,-1
 -1794 -3387 l 1,21,22
 -1878 -3281 -1878 -3281 -1878 -3111 c 0,23,24
 -1878 -2797 -1878 -2797 -1534 -2797 c 128,-1,25
 -1190 -2797 -1190 -2797 -1190 -3111 c 0,26,27
 -1190 -3352 -1190 -3352 -1438 -3438 c 0,28,29
 -1467 -3448 -1467 -3448 -1493 -3458 c 1,30,-1
 -1275 -3713 l 1,31,-1
 -936 -3528 l 1,32,-1
 -802 -3711 l 1,33,-1
 -1425 -3851 l 1,34,-1
 -1652 -3566 l 1,35,36
 -1703 -3628 -1703 -3628 -1704 -3707 c 1,37,-1
 -1704 -4051 l 2,38,39
 -1704 -4233 -1704 -4233 -1412 -4233 c 1,40,-1
 -1375 -3914 l 1,41,-1
 -1138 -3878 l 1,10,-1
-1356.5 -812 m 0,0,1
 -1356.5 -680 -1356.5 -680 -1519 -680 c 0,2,3
 -1680.5 -680 -1680.5 -680 -1680.5 -812 c 0,4,5
 -1680.5 -921.83203125 -1680.5 -921.83203125 -1644.5 -964 c 2,6,-1
 -786.5 -1969 l 1,7,-1
 -960.5 -2116 l 1,8,-1
 -1778.5 -1088 l 2,9,10
 -1862.5 -982 -1862.5 -982 -1862.5 -812 c 0,11,12
 -1862.5 -498 -1862.5 -498 -1519 -498 c 0,13,14
 -1174.5 -498 -1174.5 -498 -1174.5 -812 c 0,15,16
 -1174.5 -1057 -1174.5 -1057 -1422.5 -1139 c 0,17,18
 -1686.5 -1226 -1686.5 -1226 -1688.5 -1408 c 2,19,-1
 -1688.5 -1752 l 2,20,21
 -1688.5 -1934 -1688.5 -1934 -1396.5 -1934 c 1,22,-1
 -1341.5 -1459 l 1,23,-1
 -920.5 -1229 l 1,24,-1
 -786.5 -1412 l 1,25,-1
 -1231.5 -1583 l 1,26,-1
 -1340.5 -2116 l 1,27,-1
 -1556.5 -2116 l 2,28,29
 -1896.5 -2116 -1896.5 -2116 -1896.5 -1752 c 2,30,-1
 -1896.5 -1401 l 2,31,32
 -1896.5 -1101 -1896.5 -1101 -1546.5 -1008 c 0,33,34
 -1356.5 -957 -1356.5 -957 -1356.5 -812 c 0,0,1
  Named: "this"
-5213.5 464 m 1,32,-1
 -5052.5 678 l 1,33,-1
 -4928.5 570 l 1,34,-1
 -5109.5 353 l 1,35,-1
 -4931.5 142 l 1,36,-1
 -5089.5 0 l 1,37,-1
 -5222.5 174 l 1,38,39
 -5367.5 0 -5367.5 0 -5569.5 0 c 0,40,41
 -5975.5 2 -5975.5 2 -5997.5 365 c 0,42,43
 -5998.5 382 -5998.5 382 -5998.5 484 c 0,44,45
 -5998.5 561 -5998.5 561 -5950.5 662 c 0,46,47
 -5897.5 773 -5897.5 773 -5770.5 895 c 1,48,-1
 -5790.5 923 l 2,49,50
 -5824.5 970 -5824.5 970 -5872.5 1051 c 0,51,52
 -5919.5 1129 -5919.5 1129 -5921.5 1304 c 0,53,54
 -5925.5 1618 -5925.5 1618 -5604.5 1618 c 0,55,56
 -5299.5 1618 -5299.5 1618 -5297.5 1304 c 0,57,58
 -5296.5 1124 -5296.5 1124 -5525.5 874 c 1,59,-1
 -5213.5 464 l 1,32,-1
-5809.5 484 m 0,60,61
 -5809.5 392 -5809.5 392 -5806.5 364 c 0,62,63
 -5787.5 208 -5787.5 208 -5567.5 208 c 0,64,65
 -5437.5 208 -5437.5 208 -5342.5 332 c 1,66,-1
 -5651.5 756 l 1,67,68
 -5809.5 598 -5809.5 598 -5809.5 484 c 0,60,61
-5604.5 1436 m 0,69,70
 -5736.5 1436 -5736.5 1436 -5739.5 1304 c 0,71,72
 -5741.5 1179 -5741.5 1179 -5628.5 1038 c 1,73,74
 -5488.5 1184 -5488.5 1184 -5486.5 1304 c 0,75,76
 -5483.5 1436 -5483.5 1436 -5604.5 1436 c 0,69,70
-1823.5 3246 m 1,0,1
 -1823.5 3605 -1823.5 3605 -1471.5 3605 c 0,2,3
 -1043.5 3605 -1043.5 3605 -1043.5 3246 c 0,4,5
 -1043.5 2928 -1043.5 2928 -1387.5 2841 c 0,6,7
 -1615.5 2784 -1615.5 2784 -1615.5 2707 c 2,8,-1
 -1615.5 2356 l 2,9,10
 -1615.5 2174 -1615.5 2174 -1323.5 2174 c 1,11,-1
 -919.5 2499 l 1,12,-1
 -823.5 2356 l 1,13,-1
 -1323.5 1992 l 1,14,15
 -1823.5 1992 -1823.5 1992 -1823.5 2356 c 2,16,-1
 -1823.5 2707 l 2,17,18
 -1823.5 2923 -1823.5 2923 -1483.5 2995 c 0,19,20
 -1251.5 3044 -1251.5 3044 -1251.5 3246 c 0,21,22
 -1251.5 3428 -1251.5 3428 -1461.5 3428 c 0,23,24
 -1615.50976562 3428 -1615.50976562 3428 -1615.5 3246 c 1,25,-1
 -817.5 2023 l 1,26,-1
 -993.5 1977 l 1,27,-1
 -1823.5 3246 l 1,0,1
-4004.5 2514 m 1,0,1
 -3963.5 2651 -3963.5 2651 -3963.5 2796 c 2,2,-1
 -3963.5 2821 l 1,3,-1
 -3783.5 2821 l 1,4,-1
 -3783.5 2796 l 2,5,6
 -3783.5 2538 -3783.5 2538 -3869.5 2340 c 1,7,-1
 -3733.5 2154 l 1,8,-1
 -3849.5 1987 l 1,9,-1
 -3982.5 2161 l 1,10,11
 -4127.5 1987 -4127.5 1987 -4329.5 1987 c 0,12,13
 -4758.5 1989 -4758.5 1989 -4758.5 2420 c 0,14,15
 -4758.5 2548 -4758.5 2548 -4710.5 2649 c 0,16,17
 -4657.5 2760 -4657.5 2760 -4530.5 2882 c 1,18,-1
 -4550.5 2910 l 2,19,20
 -4605.5 2987 -4605.5 2987 -4632.5 3038 c 0,21,22
 -4681.5 3129 -4681.5 3129 -4681.5 3283 c 0,23,24
 -4681.5 3605 -4681.5 3605 -4335.5 3605 c 0,25,26
 -4057.5 3605 -4057.5 3605 -4057.5 3228 c 0,27,28
 -4057.5 3089 -4057.5 3089 -4270.5 2869 c 1,29,-1
 -4004.5 2514 l 1,0,1
-4569.5 2420 m 0,30,31
 -4569.5 2195 -4569.5 2195 -4327.5 2195 c 0,32,33
 -4197.5 2195 -4197.5 2195 -4102.5 2319 c 1,34,-1
 -4410.5 2729 l 1,35,36
 -4569.5 2570 -4569.5 2570 -4569.5 2420 c 0,30,31
-4353.5 3397 m 0,37,38
 -4492.5 3397 -4492.5 3397 -4492.5 3266 c 0,39,40
 -4492.5 3162 -4492.5 3162 -4388.5 3025 c 1,41,42
 -4253.5 3161 -4253.5 3161 -4253.5 3245 c 0,43,44
 -4253.5 3397 -4253.5 3397 -4353.5 3397 c 0,37,38
-3941.5 527 m 1,0,1
 -3900.5 664 -3900.5 664 -3900.5 809 c 2,2,-1
 -3900.5 834 l 1,3,-1
 -3720.5 834 l 1,4,-1
 -3720.5 809 l 2,5,6
 -3720.5 551 -3720.5 551 -3806.5 353 c 1,7,-1
 -3670.5 167 l 1,8,-1
 -3786.5 0 l 1,9,-1
 -3919.5 174 l 1,10,11
 -4064.5 0 -4064.5 0 -4266.5 0 c 0,12,13
 -4695.5 2 -4695.5 2 -4695.5 433 c 0,14,15
 -4695.5 561 -4695.5 561 -4647.5 662 c 0,16,17
 -4594.5 773 -4594.5 773 -4467.5 895 c 1,18,-1
 -4487.5 923 l 2,19,20
 -4542.5 1000 -4542.5 1000 -4569.5 1051 c 0,21,22
 -4618.5 1142 -4618.5 1142 -4618.5 1296 c 0,23,24
 -4618.5 1618 -4618.5 1618 -4272.5 1618 c 0,25,26
 -3994.5 1618 -3994.5 1618 -3994.5 1241 c 0,27,28
 -3994.5 1102 -3994.5 1102 -4207.5 882 c 1,29,-1
 -3941.5 527 l 1,0,1
-4506.5 433 m 0,30,31
 -4506.5 208 -4506.5 208 -4264.5 208 c 0,32,33
 -4134.5 208 -4134.5 208 -4039.5 332 c 1,34,-1
 -4347.5 742 l 1,35,36
 -4506.5 583 -4506.5 583 -4506.5 433 c 0,30,31
-4290.5 1410 m 0,37,38
 -4429.5 1410 -4429.5 1410 -4429.5 1279 c 0,39,40
 -4429.5 1175 -4429.5 1175 -4325.5 1038 c 1,41,42
 -4190.5 1174 -4190.5 1174 -4190.5 1258 c 0,43,44
 -4190.5 1410 -4190.5 1410 -4290.5 1410 c 0,37,38
-3734.5 3201 m 1,0,-1
 -5034.5 3313 l 1025
-4448.5 2308 m 1,2,-1
 -4336.5 3608 l 1025
-2860.5 3320 m 0,0,1
 -2860.5 3446 -2860.5 3446 -3022.5 3446 c 128,-1,2
 -3184.5 3446 -3184.5 3446 -3184.5 3320 c 0,3,4
 -3184.5 3228 -3184.5 3228 -3132.5 3166 c 2,5,-1
 -3088.5 3113 l 1,6,7
 -3070.5 3119 -3070.5 3119 -3050.5 3124 c 0,8,9
 -2860.5 3175 -2860.5 3175 -2860.5 3320 c 0,0,1
-3135.5 2860 m 1,10,11
 -3191.5 2804 -3191.5 2804 -3192.5 2734 c 2,12,-1
 -3192.5 2516 l 2,13,14
 -3192.5 2224 -3192.5 2224 -2900.5 2224 c 0,15,16
 -2758.5 2224 -2758.5 2224 -2685.5 2293 c 1,17,-1
 -3135.5 2860 l 1,10,11
-2547.5 2121 m 1,18,19
 -2671.5 2016 -2671.5 2016 -2900.5 2016 c 0,20,21
 -3400.5 2016 -3400.5 2016 -3400.5 2516 c 2,22,-1
 -3400.5 2825 l 2,23,24
 -3400.5 2949 -3400.5 2949 -3273.5 3032 c 1,25,-1
 -3282.5 3044 l 2,26,27
 -3366.5 3150 -3366.5 3150 -3366.5 3320 c 0,28,29
 -3366.5 3633 -3366.5 3633 -3022.5 3633 c 128,-1,30
 -2678.5 3633 -2678.5 3633 -2678.5 3320 c 0,31,32
 -2678.5 3055 -2678.5 3055 -2926.5 2973 c 0,33,34
 -2944.5 2967 -2944.5 2967 -2961.5 2961 c 1,35,-1
 -2608.5 2537 l 1,36,-1
 -2608.5 2734 l 1,37,-1
 -2400.5 2643 l 1,38,-1
 -2400.5 2516 l 2,39,40
 -2400.5 2404 -2400.5 2404 -2425.5 2318 c 1,41,-1
 -2346.5 2223 l 1,42,-1
 -2464.5 2016 l 1,43,-1
 -2547.5 2121 l 1,18,19
-2817.5 1304 m 0,0,1
 -2817.5 1430 -2817.5 1430 -2979.5 1430 c 128,-1,2
 -3141.5 1430 -3141.5 1430 -3141.5 1304 c 0,3,4
 -3141.5 1212 -3141.5 1212 -3089.5 1150 c 2,5,-1
 -2303.5 207 l 1,6,-1
 -2421.5 0 l 1,7,-1
 -3239.5 1028 l 2,8,9
 -3323.5 1134 -3323.5 1134 -3323.5 1304 c 0,10,11
 -3323.5 1617 -3323.5 1617 -2979.5 1617 c 128,-1,12
 -2635.5 1617 -2635.5 1617 -2635.5 1304 c 0,13,14
 -2635.5 1039 -2635.5 1039 -2883.5 957 c 0,15,16
 -3147.5 870 -3147.5 870 -3149.5 718 c 2,17,-1
 -3149.5 500 l 2,18,19
 -3149.5 208 -3149.5 208 -2857.5 208 c 128,-1,20
 -2565.5 208 -2565.5 208 -2565.5 500 c 2,21,-1
 -2565.5 718 l 1,22,-1
 -2357.5 627 l 1,23,24
 -2357.5 500 l 2,25,26
 -2357.5 0 -2357.5 0 -2857.5 0 c 128,-1,27
 -3357.5 0 -3357.5 0 -3357.5 500 c 2,28,-1
 -3357.5 809 l 2,29,30
 -3357.5 1015 -3357.5 1015 -3007.5 1108 c 0,31,32
 -2817.5 1159 -2817.5 1159 -2817.5 1304 c 0,0,1
-1477.5 936 m 1,0,1
 -1405.5 860 l 1,2,3
 -1329.5 872 -1329.5 872 -1237.5 873 c 0,4,5
 -945.5 873 -945.5 873 -945.5 1128 c 2,6,-1
 -945.5 1182 l 2,7,8
 -945.5 1436 -945.5 1436 -1237.5 1436 c 128,-1,9
 -1529.5 1436 -1529.5 1436 -1529.5 1182 c 2,10,-1
 -1529.5 1128 l 2,11,12
 -1529.5 988 -1529.5 988 -1477.5 936 c 1,0,1
-1244.5 691 m 1,13,-1
 -911.5 341 l 1,14,15
 -884.5 379 -884.5 379 -884.5 473 c 0,16,17
 -884.5 534 -884.5 534 -898.5 608 c 1,18,-1
 -690.5 456 l 1,19,20
 -690.5 278 -690.5 278 -755.5 178 c 1,21,-1
 -586.5 0 l 1,22,-1
 -864.5 0 l 1,23,-1
 -912.5 49 l 1,24,25
 -1023.5 0 -1023.5 0 -1190.5 0 c 2,26,-1
 -1284.5 0 l 2,27,28
 -1784.5 0 -1784.5 0 -1784.5 436 c 0,29,30
 -1784.5 679 -1784.5 679 -1616.5 786 c 1,31,-1
 -1623.5 794 l 1,32,33
 -1737.5 893 -1737.5 893 -1737.5 1128 c 2,34,-1
 -1737.5 1182 l 2,35,36
 -1737.5 1618 -1737.5 1618 -1237.5 1618 c 128,-1,37
 -737.5 1618 -737.5 1618 -737.5 1182 c 2,38,-1
 -737.5 1128 l 2,39,40
 -737.5 691 -737.5 691 -1190.5 691 c 2,41,-1
 -1244.5 691 l 1,13,-1
-1480.5 645 m 1,42,43
 -1576.5 583 -1576.5 583 -1576.5 436 c 0,44,45
 -1575.5 182 -1575.5 182 -1284.5 182 c 2,46,-1
 -1190.5 182 l 2,47,48
 -1113.5 182 -1113.5 182 -1056.5 199 c 1,49,-1
 -1480.5 645 l 1,42,43
EndSplineSet
Fore
SplineSet
818 1304 m 1,0,-1
 636 1304 l 1,1,2
 636 1436 636 1436 469 1436 c 128,-1,3
 302 1436 302 1436 302 1314 c 0,4,5
 302 1206 302 1206 398 1094 c 2,6,-1
 783 643 l 1,7,-1
 1012 1005 l 1,8,-1
 1222 903 l 1,9,-1
 963 574 l 1,10,-1
 624 556 l 1,11,-1
 377 893 l 1,12,13
 305 805 305 805 304 628 c 1,14,-1
 304 364 l 2,15,16
 304 182 304 182 486 182 c 1,17,-1
 680 481 l 1,18,-1
 904 500 l 1,19,-1
 1206 147 l 1,20,-1
 1032 0 l 1,21,-1
 781 343 l 1,22,-1
 512 0 l 1,23,-1
 436 0 l 2,24,25
 96 0 96 0 96 364 c 2,26,-1
 96 635 l 2,27,28
 96 841 96 841 297 1002 c 1,29,30
 130 1196 130 1196 130 1334 c 0,31,32
 130 1618 130 1618 474 1618 c 128,-1,33
 818 1618 818 1618 818 1304 c 1,0,-1
EndSplineSet
Validated: 1
EndChar

StartChar: quotesingle
Encoding: 7 39 7
Width: 1302
VWidth: 1667
GlyphClass: 2
Flags: W
HStem: 900 718<587 715>
VStem: 527 248<1270.83 1618>
LayerCount: 2
Fore
SplineSet
587 900 m 1,0,-1
 527 1410 l 1,1,-1
 527 1618 l 1,2,-1
 775 1618 l 1,3,-1
 775 1410 l 1,4,-1
 715 900 l 1,5,-1
 587 900 l 1,0,-1
EndSplineSet
Validated: 1
EndChar

StartChar: parenleft
Encoding: 8 40 8
Width: 1302
VWidth: 1667
GlyphClass: 2
Flags: W
HStem: -357 182<902.146 1151> 1436 182<902.146 1151>
VStem: 359 208<243.422 1017.58>
LayerCount: 2
Fore
SplineSet
359 630.5 m 132,-1,1
 359 1618 359 1618 1151 1618 c 1,2,-1
 1151 1436 l 5,3,4
 567 1436 567 1436 567 630.5 c 128,-1,5
 567 -175 567 -175 1151 -175 c 1,6,-1
 1151 -357 l 1,7,0
 359 -357 359 -357 359 630.5 c 132,-1,1
EndSplineSet
Validated: 1
EndChar

StartChar: parenright
Encoding: 9 41 9
Width: 1302
VWidth: 1667
GlyphClass: 2
Flags: W
HStem: -357 181<151 399.854> 1436 182<151 399.854>
VStem: 735 208<243.07 1017.3>
LayerCount: 2
Fore
SplineSet
943 630 m 0,0,1
 943 -356 943 -356 151 -357 c 1,2,-1
 151 -176 l 1,3,4
 735 -176 735 -176 735 630 c 128,-1,5
 735 1436 735 1436 151 1436 c 1,6,-1
 151 1618 l 1,7,8
 943 1618 943 1618 943 630 c 0,0,1
EndSplineSet
Validated: 1
EndChar

StartChar: asterisk
Encoding: 10 42 10
Width: 1302
VWidth: 1911
GlyphClass: 2
Flags: W
HStem: 705 208<151 471 831 1151>
LayerCount: 2
Fore
SplineSet
151 705 m 1,0,-1
 151 913 l 1,1,-1
 471 913 l 1,2,-1
 311 1190 l 1,3,-1
 491 1294 l 1,4,-1
 651 1017 l 1,5,-1
 811 1294 l 1,6,-1
 991 1190 l 1,7,-1
 831 913 l 1,8,-1
 1151 913 l 1,9,-1
 1151 705 l 1,10,-1
 831 705 l 1,11,-1
 991 428 l 1,12,-1
 811 324 l 1,13,-1
 651 601 l 1,14,-1
 491 324 l 1,15,-1
 311 428 l 1,16,-1
 471 705 l 1,17,-1
 151 705 l 1,0,-1
EndSplineSet
Validated: 1
EndChar

StartChar: plus
Encoding: 11 43 11
Width: 1302
VWidth: 1911
GlyphClass: 2
Flags: W
HStem: 705 208<151 547 755 1151>
VStem: 547 208<309 705 913 1309>
LayerCount: 2
Fore
SplineSet
151 705 m 1,0,-1
 151 913 l 1,1,-1
 547 913 l 1,2,-1
 547 1309 l 1,3,-1
 755 1309 l 1,4,-1
 755 913 l 1,5,-1
 1151 913 l 1,6,-1
 1151 705 l 1,7,-1
 755 705 l 1,8,-1
 755 309 l 1,9,-1
 547 309 l 1,10,-1
 547 705 l 1,11,-1
 151 705 l 1,0,-1
EndSplineSet
Validated: 1
EndChar

StartChar: comma
Encoding: 12 44 12
Width: 1302
VWidth: 1667
GlyphClass: 2
Flags: W
HStem: -358 566
VStem: 359 584
LayerCount: 2
Back
SplineSet
943 206 m 29,0,-1
 650 -410 l 1053
EndSplineSet
Fore
SplineSet
359 -358 m 1,0,-1
 651 208 l 5,1,-1
 943 208 l 5,2,-1
 856 0 l 1,3,-1
 539 -358 l 1,4,-1
 359 -358 l 1,0,-1
EndSplineSet
Validated: 1
EndChar

StartChar: hyphen
Encoding: 13 45 13
Width: 1302
VWidth: 1911
GlyphClass: 2
Flags: W
HStem: 705 208<151 1151>
LayerCount: 2
Fore
SplineSet
151 705 m 5,0,-1
 151 913 l 5,1,-1
 1151 913 l 5,2,-1
 1151 705 l 5,3,-1
 151 705 l 5,0,-1
EndSplineSet
Validated: 1
EndChar

StartChar: period
Encoding: 14 46 14
Width: 1302
VWidth: 1911
GlyphClass: 2
Flags: W
HStem: 0 312<524.859 777.141>
VStem: 495 312<29.8594 282.141>
LayerCount: 2
Fore
SplineSet
807 156 m 132,-1,1
 807 0 807 0 651 0 c 132,-1,2
 495 0 495 0 495 156 c 132,-1,3
 495 312 495 312 651 312 c 132,-1,0
 807 312 807 312 807 156 c 132,-1,1
EndSplineSet
Validated: 1
EndChar

StartChar: slash
Encoding: 15 47 15
Width: 1302
VWidth: 1667
GlyphClass: 2
Flags: W
HStem: 0 21G<151 378.666> 1598 20G<913.457 1151>
LayerCount: 2
Fore
SplineSet
151 0 m 1,0,-1
 923 1618 l 1,1,-1
 1151 1618 l 1,2,-1
 369 0 l 1,3,-1
 151 0 l 1,0,-1
EndSplineSet
Validated: 1
EndChar

StartChar: zero
Encoding: 16 48 16
Width: 1302
VWidth: 1667
GlyphClass: 2
Flags: W
HStem: 0 208<505.857 793.598> 1378 240<505.159 797.336>
VStem: 151 208<527.445 1179.55> 943 208<418.903 1087.62>
LayerCount: 2
Back
SplineSet
-2623.74121094 369.522460938 m 1,0,-1
 -1978.22070312 1410.640625 l 1,1,-1
 -1914.47851562 1371.11914062 l 1,2,-1
 -1850.73730469 1331.59667969 l 1,3,-1
 -2496.2578125 290.478515625 l 1,4,-1
 -2560 330 l 1,5,-1
 -2623.74121094 369.522460938 l 1,0,-1
-1972 809 m 0,6,7
 -1972 1378 -1972 1378 -2264 1378 c 128,-1,8
 -2556 1378 -2556 1378 -2556 809 c 0,9,10
 -2556 208 -2556 208 -2264 208 c 128,-1,11
 -1972 208 -1972 208 -1972 809 c 0,6,7
-2264 0 m 128,-1,13
 -2764 0 -2764 0 -2764 809 c 128,-1,14
 -2764 1618 -2764 1618 -2264 1618 c 128,-1,15
 -1764 1618 -1764 1618 -1764 809 c 128,-1,12
 -1764 0 -1764 0 -2264 0 c 128,-1,13
-1475 100 m 1,0,-1
 -262 100 l 1,1,-1
 -262 0 l 1,2,-1
 -1475 0 l 1,3,-1
 -1475 100 l 1,0,-1
1847 0 m 128,-1,1
 1347 0 1347 0 1347 627 c 2,2,-1
 1347 991 l 2,3,4
 1347 1618 1347 1618 1847 1618 c 128,-1,5
 2347 1618 2347 1618 2347 991 c 2,6,-1
 2347 627 l 2,7,0
 2347 0 2347 0 1847 0 c 128,-1,1
2139 627 m 2,8,-1
 2139 991 l 2,9,10
 2139 1410 2139 1410 1847 1410 c 128,-1,11
 1555 1410 1555 1410 1555 991 c 2,12,-1
 1555 627 l 2,13,14
 1555 208 1555 208 1847 208 c 128,-1,15
 2139 208 2139 208 2139 627 c 2,8,-1
1951 809 m 128,-1,17
 1951 627 1951 627 1847 627 c 128,-1,18
 1743 627 1743 627 1743 809 c 128,-1,19
 1743 991 1743 991 1847 991 c 128,-1,16
 1951 991 1951 991 1951 809 c 128,-1,17
EndSplineSet
Fore
SplineSet
651 0 m 132,-1,1
 151 0 151 0 151 809 c 132,-1,2
 151 1618 151 1618 651 1618 c 132,-1,3
 1151 1618 1151 1618 1151 809 c 132,-1,0
 1151 0 1151 0 651 0 c 132,-1,1
918 1095 m 5,4,-1
 445 333 l 5,5,6
 517 208 517 208 651 208 c 4,7,8
 943 208 943 208 943 809 c 4,9,10
 943 977 943 977 918 1095 c 5,4,-1
850 1270 m 5,11,12
 778 1378 778 1378 651 1378 c 4,13,14
 359 1378 359 1378 359 809 c 4,15,16
 359 639 359 639 382 517 c 5,17,-1
 850 1270 l 5,11,12
EndSplineSet
Validated: 1
EndChar

StartChar: one
Encoding: 17 49 17
Width: 1310
VWidth: 1488
GlyphClass: 2
Flags: W
HStem: 0 21G<735 943> 1598 20G<720.026 943>
VStem: 735 208<0 1271>
LayerCount: 2
Back
SplineSet
4046.5 1038 m 25,0,-1
 4799.73632812 1282.7421875 l 1049,1,-1
4546.5 1738 m 1,0,-1
 4546.5 0 l 1,1,-1
 4338.5 0 l 1,2,-1
 4338.5 1133 l 1,3,-1
 4046.5 1038 l 1,4,-1
 4546.5 1738 l 1,0,-1
-907.5 1618 m 1,0,-1
 -1333.5 1049 l 1,1,-1
 -333.5 182 l 1,2,-1
 -689.5 1618 l 1,0,-1
 -907.5 1618 l 1,0,-1
-1333.5 1049 m 5,0,-1
 -907.5 1618 l 5,1,-1
 -741.099609375 1493.20019531 l 5,2,-1
 -1167.09960938 924.200195312 l 5,3,-1
 -1333.5 1049 l 5,0,-1
-689.5 1618 m 1,0,-1
 -689.5 182 l 1,1,-1
 -333.5 182 l 1,2,-1
 -333.5 0 l 1,3,-1
 -1333.5 0 l 1,4,-1
 -1333.5 182 l 1,5,-1
 -907.5 182 l 1,6,-1
 -907.5 1272 l 1,7,-1
 -1175.5 912 l 1,8,-1
 -1333.5 1049 l 1,9,-1
 -907.5 1618 l 1,10,-1
 -689.5 1618 l 1,0,-1
3610.10839844 1207.54199219 m 1,2,3
 3157.5 1207 3157.5 1207 2939.5 690 c 1,4,-1
 2781.47949219 780.296875 l 1,5,6
 3029.5 1377 3029.5 1377 3544.47949219 1377.296875 c 1,7,-1
 3610.10839844 1207.54199219 l 1,2,3
2413.5 1318 m 25,0,-1
 2479.5 1148 l 1049,1,-1
-1727.5 1444 m 1,0,1
 -1782.5 1444 -1782.5 1444 -1865.5 1418 c 1,2,-1
 -1865.5 182 l 1,3,-1
 -1519.5 182 l 1,4,-1
 -1519.5 0 l 1,5,-1
 -2519.5 0 l 1,6,-1
 -2519.5 182 l 1,7,-1
 -2073.5 182 l 1,8,-1
 -2065.5 1316 l 1,9,10
 -2232.5 1171 -2232.5 1171 -2332.5 929 c 1,11,-1
 -2490.5 1021 l 1,12,13
 -2242.5 1618 -2242.5 1618 -1727.5 1618 c 1,14,-1
 -1727.5 1444 l 1,0,1
-3290.5 182 m 1,0,-1
 -2894.5 182 l 1,1,-1
 -2894.5 0 l 1,2,-1
 -3894.5 0 l 1,3,-1
 -3894.5 182 l 1,4,-1
 -3498.5 182 l 1,5,-1
 -3498.5 1281 l 1,6,-1
 -3785.5 912 l 1,7,-1
 -3948.5 1039 l 1,8,-1
 -3498.5 1615 l 1,9,-1
 -3290.5 1618 l 1,10,-1
 -3290.5 182 l 1,0,-1
151 0 m 1,0,1
 151 325 151 325 484 538 c 0,2,3
 953 838 953 838 953 1154 c 0,4,5
 953 1272 953 1272 865 1354 c 128,-1,6
 777 1436 777 1436 653.5 1436 c 128,-1,8
 530 1436 530 1436 439.5 1355 c 128,-1,9
 349 1274 349 1274 349 1151 c 128,-1,10
 349 1028 349 1028 461 948 c 1,11,-1
 338 809 l 1,12,13
 151 941 151 941 151 1154 c 0,14,15
 151 1334 151 1334 296 1476 c 128,-1,16
 441 1618 441 1618 651 1618 c 0,17,18
 769 1618 769 1618 864 1573 c 0,19,20
 1151 1436 1151 1436 1151 1154 c 0,21,22
 1151 769 1151 769 651 450 c 0,23,24
 466 331 466 331 398 182 c 1,25,-1
 1151 182 l 1,26,-1
 1151 0 l 1,27,-1
 151 0 l 1,0,1
6010 0 m 1,1,-1
 5218 0 l 1,2,-1
 5218 208 l 1,3,-1
 5510 208 l 1,4,-1
 5510 1278 l 1,5,-1
 5347 900 l 1,6,-1
 5098 900 l 1,7,-1
 5510 1615 l 1,8,-1
 5718 1618 l 1,9,-1
 5718 208 l 1,10,-1
 6010 208 l 1,11,-1
 6010 0 l 1,1,-1
EndSplineSet
Fore
SplineSet
943 1618 m 1025,0,-1
943 0 m 1,1,-1
 735 0 l 1,2,-1
 735 1271 l 1,3,-1
 475 924 l 1,4,-1
 309 1049 l 1,5,-1
 735 1618 l 1,6,-1
 943 1618 l 1,7,-1
 943 0 l 1,1,-1
EndSplineSet
Validated: 1
EndChar

StartChar: two
Encoding: 18 50 18
Width: 1302
VWidth: 1488
GlyphClass: 2
Flags: W
HStem: 0 182<398 1151> 1436 182<478.649 824.617>
VStem: 151 198<1005.39 1310.6> 953 198<951.237 1309.7>
LayerCount: 2
Back
SplineSet
348 256 m 1,0,-1
 1150 769 l 1025,1,-1
151 718 m 1,0,-1
 1151 182 l 1025,1,-1
393 771 m 5,0,-1
 26 1014 l 1025,1,-1
493 925 m 1,0,-1
 132 1178 l 1025,1,-1
359 1618 m 1,0,-1
 943 718 l 1025
339 809 m 1,2,-1
 651 1168 l 1025
5667 3454 m 0,10,11
 5788 3454 5788 3454 5887 3407 c 0,12,13
 6096 3308 6096 3308 6148 3109 c 0,14,15
 6167 3036 6167 3036 6167 2954 c 0,16,17
 6166 2753 6166 2753 6059 2551 c 0,18,19
 5909 2269 5909 2269 5563 2018 c 1,20,-1
 6167 2018 l 1,21,-1
 6167 1836 l 1,22,-1
 5167 1836 l 1,23,24
 5167 1985 5167 1985 5446 2175 c 0,25,26
 5748 2380 5748 2380 5886 2664 c 0,27,28
 5959 2812 5959 2812 5959 2943 c 0,29,30
 5959 3099 5959 3099 5878 3185 c 0,31,32
 5794 3272 5794 3272 5667 3272 c 0,33,34
 5544 3271 5544 3271 5458 3193 c 0,35,36
 5376 3119 5376 3119 5375 3008 c 0,37,38
 5375 2917 5375 2917 5423 2858 c 1,39,-1
 5233 2781 l 1,40,41
 5167 2891 5167 2891 5167 2996 c 0,42,43
 5167 3194 5167 3194 5296 3320 c 0,44,45
 5433 3454 5433 3454 5667 3454 c 0,10,11
359 718 m 1,0,-1
 943 1618 l 1025
5682 1121 m 1,0,-1
 5182 925 l 1,1,-1
 5182 499 l 1,2,-1
 5715 980 l 1,3,-1
 5682 1121 l 1,0,-1
5682 1618 m 0,4,5
 5803 1618 5803 1618 5902 1571 c 0,6,7
 6109 1473 6109 1473 6163 1273 c 0,8,9
 6182 1200 6182 1200 6182 1148 c 0,10,11
 6181 924 6181 924 6071 712 c 0,12,13
 6001 578 6001 578 5885 461 c 0,14,15
 5761 336 5761 336 5568 182 c 1,16,-1
 6182 182 l 1,17,-1
 6182 0 l 1,18,-1
 5182 0 l 1,19,-1
 5182 182 l 1,20,21
 5546 352 5546 352 5766 629 c 0,22,23
 5863 750 5863 750 5901 828 c 0,24,25
 5974 976 5974 976 5974 1107 c 0,26,27
 5974 1257 5974 1257 5882.5 1347 c 128,-1,28
 5791 1437 5791 1437 5664 1437 c 0,29,30
 5535 1436 5535 1436 5457 1366 c 0,31,32
 5371 1288 5371 1288 5370 1172 c 0,33,34
 5370 1002 5370 1002 5546 933 c 1,35,-1
 5396 775 l 1,36,37
 5182 924 5182 924 5182 1140 c 0,38,39
 5182 1358 5182 1358 5311 1484 c 0,40,41
 5448 1618 5448 1618 5682 1618 c 0,4,5
-1969 1634 m 128,-1,1
 -1469 1634 -1469 1634 -1469 1099 c 128,-1,2
 -1469 564 -1469 564 -2067 182 c 1,3,-1
 -1469 182 l 1,4,-1
 -1469 0 l 1,5,-1
 -2468 0 l 1,6,-1
 -2468 182 l 1,7,8
 -2047 371 -2047 371 -1828 666 c 0,9,10
 -1677 869 -1677 869 -1677 1100 c 0,11,12
 -1677 1424 -1677 1424 -1969 1424 c 128,-1,13
 -2261 1424 -2261 1424 -2261 1100 c 0,14,15
 -2261 1067 -2261 1067 -2235 1018 c 1,16,-1
 -2387 883 l 1,17,18
 -2469 995 -2469 995 -2469 1100 c 0,19,0
 -2469 1634 -2469 1634 -1969 1634 c 128,-1,1
EndSplineSet
Fore
SplineSet
151 0 m 1,0,1
 151 325 151 325 484 538 c 0,2,3
 953 838 953 838 953 1154 c 0,4,5
 953 1272 953 1272 865 1354 c 128,-1,6
 777 1436 777 1436 653 1436 c 0,7,8
 530 1436 530 1436 439.5 1355 c 128,-1,9
 349 1274 349 1274 349 1151 c 128,-1,10
 349 1028 349 1028 461 948 c 1,11,-1
 338 809 l 1,12,13
 151 941 151 941 151 1154 c 0,14,15
 151 1334 151 1334 296 1476 c 128,-1,16
 441 1618 441 1618 651 1618 c 0,17,18
 769 1618 769 1618 864 1573 c 0,19,20
 1151 1436 1151 1436 1151 1154 c 0,21,22
 1151 769 1151 769 651 450 c 0,23,24
 466 331 466 331 398 182 c 1,25,-1
 1151 182 l 1,26,-1
 1151 0 l 1,27,-1
 151 0 l 1,0,1
EndSplineSet
Validated: 1
EndChar

StartChar: three
Encoding: 19 51 19
Width: 1302
VWidth: 1667
GlyphClass: 2
Flags: W
HStem: 0 182<409.497 856.169> 758 182<450 841.125> 1436 182<439.883 839.842>
VStem: 131 208<249.628 364> 171 208<1254 1375.17> 923 208<1021.98 1354.33> 963 208<287.905 653.07>
LayerCount: 2
Back
SplineSet
-4752 961 m 1,0,-1
 -4824 901 l 1,1,-1
 -5023 994 l 1,2,-1
 -4520 1411 l 1,3,-1
 -5182 1411 l 1,4,-1
 -5182 1619 l 1,5,-1
 -4222 1619 l 1,6,-1
 -4223 1411 l 1,7,-1
 -4582 1107 l 1,8,9
 -4136.79980469 1029.48730469 -4136.79980469 1029.48730469 -4136 572 c 0,10,11
 -4136 0 -4136 0 -4682 0 c 0,12,13
 -4999 0 -4999 0 -5206 204 c 1,14,-1
 -5114 380 l 1,15,16
 -4953 203 -4953 203 -4682 203 c 0,17,18
 -4341 203 -4341 203 -4341 572 c 0,19,20
 -4342.89941406 905.8515625 -4342.89941406 905.8515625 -4752 961 c 1,0,-1
-2552 960 m 1,0,-1
 -2624 900 l 1,1,-1
 -2823 993 l 1,2,-1
 -2320 1410 l 1,3,-1
 -2982 1410 l 1,4,-1
 -2982 1618 l 1,5,-1
 -2022 1618 l 1,6,-1
 -2023 1410 l 1,7,-1
 -2382 1106 l 1,8,9
 -2226 1078 -2226 1078 -2110 967 c 0,10,11
 -1984 846 -1984 846 -1948 669 c 0,12,13
 -1918.98725975 525.457396141 -1918.98725975 525.457396141 -1960.25 388.357421875 c 0,14,15
 -2002.43480893 248.193773408 -2002.43480893 248.193773408 -2108 150 c 0,15,16
 -2182 81 -2182 81 -2279.5 42.5 c 128,-1,18
 -2377 4 -2377 4 -2482 0 c 0,17,18
 -2625 -6 -2625 -6 -2763 48 c 128,-1,20
 -2901 102 -2901 102 -3006 203 c 1,19,-1
 -2914 379 l 1,20,21
 -2832.36198224 286.275559478 -2832.36198224 286.275559478 -2718.84960938 239.58203125 c 0,22,23
 -2602.00019468 191.513645269 -2602.00019468 191.513645269 -2482 204 c 0,23,24
 -2353.28852495 217.392481396 -2353.28852495 217.392481396 -2262.70996094 295.294921875 c 0,25,26
 -2216.68274317 334.880806591 -2216.68274317 334.880806591 -2186.87829589 388.755638125 c 128,-1,27
 -2157.07384861 442.63046966 -2157.07384861 442.63046966 -2149 502 c 0,26,27
 -2137.25844359 588.336177293 -2137.25844359 588.336177293 -2170.21777344 673.477539062 c 0,28,29
 -2201.04754159 753.121464956 -2201.04754159 753.121464956 -2266 818 c 0,29,30
 -2383 935 -2383 935 -2552 960 c 1,0,-1
  Spiro
    -2552 960 v
    -2624 900 v
    -2823 993 v
    -2320 1410 v
    -2982 1410 v
    -2982 1618 v
    -2022 1618 v
    -2023 1410 v
    -2382 1106 v
    -2110 967 o
    -1948 669 o
    -2108 150 o
    -2482 0 o
    -3006 203 v
    -2914 379 v
    -2482 204 o
    -2149 502 o
    -2266 818 o
    0 0 z
  EndSpiro
224 657 m 1,0,-1
 1108 1410 l 1025
  Spiro
    224 657 {
    1108 1410 v
    0 0 z
  EndSpiro
EndSplineSet
Fore
SplineSet
651 182 m 128,-1,1
 963 182 963 182 963 470 c 128,-1,2
 963 758 963 758 651 758 c 2,3,-1
 450 758 l 1,4,-1
 450 940 l 1,5,-1
 651 940 l 2,6,7
 923 940 923 940 923 1188 c 128,-1,8
 923 1436 923 1436 651 1436 c 128,-1,9
 379 1436 379 1436 379 1254 c 1,10,-1
 171 1254 l 1,11,12
 171 1618 171 1618 651 1618 c 128,-1,13
 1131 1618 1131 1618 1131 1188 c 0,14,15
 1131 946 1131 946 926 849 c 1,16,17
 1171 724 1171 724 1171 470 c 0,18,19
 1171 0 1171 0 651 0 c 128,-1,20
 131 0 131 0 131 364 c 1,21,-1
 339 364 l 1,22,0
 339 182 339 182 651 182 c 128,-1,1
EndSplineSet
Validated: 1
EndChar

StartChar: four
Encoding: 20 52 20
Width: 1302
VWidth: 1667
GlyphClass: 2
Flags: W
HStem: 0 21G<817 1025> 255 182<344 817 1025 1151> 1598 20G<805.288 1025>
VStem: 817 208<0 255 437 1216>
LayerCount: 2
Back
SplineSet
6914 1496 m 1,0,1
 6372 1144 6372 1144 6300 456 c 5,4,-1
 6666 456 l 5,5,-1
 6666 832 l 1,6,-1
 6874 892 l 1,7,-1
 6874 456 l 5,8,-1
 7112 456 l 5,9,-1
 7112 274 l 5,10,-1
 6874 274 l 5,11,-1
 6874 0 l 1,12,-1
 6666 0 l 1,13,-1
 6666 274 l 5,14,-1
 6077 274 l 5,15,16
 6124 1300 6124 1300 6834 1680.1953125 c 1,19,-1
 6914 1496 l 1,0,1
408 1025 m 1,0,1
 508 1084 508 1084 651 1085 c 0,2,3
 1244 1085 1244 1085 1244 579 c 0,4,5
 1244 0 1244 0 651 0 c 0,6,7
 334 0 334 0 132 255 c 1,8,-1
 273 392 l 1,9,10
 451 201 451 201 651 201 c 0,11,12
 1028 201 1028 201 1028 580 c 0,13,14
 1028 902 1028 902 651 903 c 0,15,16
 463 903 463 903 357 780 c 1,17,-1
 337 740 l 1,18,-1
 132 755 l 1,19,-1
 345 1618 l 1,20,-1
 1027 1618 l 1,21,-1
 1027 1410 l 1,22,-1
 509 1410 l 1,23,-1
 408 1025 l 1,0,1
-5728 1198 m 1,0,-1
 -5728 518 l 1,1,-1
 -5520 518 l 1,2,-1
 -5520 336 l 1,3,-1
 -5728 336 l 1,4,-1
 -5728 0 l 1,5,-1
 -5936 0 l 1,6,-1
 -5936 336 l 1,7,-1
 -6520 336 l 1,8,-1
 -6520 518 l 1,9,-1
 -6227 1618 l 1,10,-1
 -6020 1618 l 1,11,-1
 -6299 518 l 1,12,-1
 -5936 518 l 1,13,-1
 -5936 1198 l 1,14,-1
 -5728 1198 l 1,0,-1
-4154 900 m 1,0,-1
 -4154 390 l 1,1,-1
 -3904 390 l 1,2,-1
 -3904 208 l 1,3,-1
 -4154 208 l 1,4,-1
 -4154 0 l 1,5,-1
 -4362 0 l 1,6,-1
 -4362 208 l 1,7,-1
 -4904 208 l 1,8,-1
 -4904 809 l 1,9,-1
 -4404 1618 l 1,10,-1
 -4112 1618 l 1,11,-1
 -4722 749.8046875 l 1,12,-1
 -4722 390 l 1,13,-1
 -4362 390 l 1,14,-1
 -4362 808 l 1,15,-1
 -4154 900 l 1,0,-1
5359 1496 m 1,0,1
 4817 1383 4817 1383 4691 699 c 1,2,3
 4693 582 4693 582 4695 466 c 1,4,-1
 5021 466 l 1,5,-1
 5021 1252 l 1,6,-1
 5229 1312 l 1,7,-1
 5229 466 l 1,8,-1
 5557 466 l 1,9,-1
 5557 284 l 1,10,-1
 5229 284 l 1,11,-1
 5229 0 l 1,12,-1
 5021 0 l 1,13,-1
 5021 284 l 1,14,-1
 4522 284 l 1,15,16
 4522 476 4522 476 4522 666 c 1,17,18
 4601 1491 4601 1491 5279 1680.1953125 c 1,19,-1
 5359 1496 l 1,0,1
8649 1202 m 1,32,-1
 8328 549 l 1,33,-1
 8649 545 l 1,34,-1
 8649 1202 l 1,32,-1
8857 1618 m 1,35,-1
 8862 545 l 1,36,-1
 9003 545 l 1,37,-1
 9003 363 l 1,38,-1
 8862 363 l 1,39,-1
 8862 182 l 1,40,-1
 9003 182 l 1,41,-1
 9003 0 l 1,42,-1
 8503 0 l 1,43,-1
 8503 182 l 1,44,-1
 8649 182 l 1,45,-1
 8649 363 l 1,46,-1
 8003 363 l 1,47,-1
 8649 1618 l 1,48,-1
 8857 1618 l 1,35,-1
-2043 1618 m 1,0,-1
 -2027 545 l 1,1,-1
 -1819 545 l 1,2,-1
 -1819 363 l 1,3,-1
 -2027 363 l 1,4,-1
 -2027 0 l 1,5,-1
 -2235 0 l 1,6,-1
 -2235 363 l 1,7,-1
 -2819 363 l 1,8,-1
 -2634 1605 l 1,10,-1
 -2427 1605 l 1,11,-1
 -2598 545 l 1,14,-1
 -2235 545 l 1,15,-1
 -2220 1612 l 1,16,-1
 -2043 1618 l 1,0,-1
-267 1618 m 1,0,-1
 -251 545 l 1,1,-1
 -43 545 l 1,2,-1
 -43 363 l 1,3,-1
 -251 363 l 1,4,-1
 -251 0 l 1,5,-1
 -459 0 l 1,6,-1
 -459 363 l 1,7,-1
 -1043 363 l 1,8,-1
 -858 1381 l 1,10,-1
 -651 1381 l 1,11,-1
 -822 545 l 1,14,-1
 -459 545 l 1,15,-1
 -444 1612 l 1,16,-1
 -267 1618 l 1,0,-1
3255 809 m 1,0,-1
 3255 545 l 1,1,-1
 3463 545 l 1,2,-1
 3463 363 l 1,3,-1
 3255 363 l 1,4,-1
 3255 0 l 1,5,-1
 3047 0 l 1,6,-1
 3047 363 l 1,7,-1
 2463 363 l 1,8,-1
 2463 545 l 1,9,-1
 3048 1618 l 1,10,-1
 3255 1618 l 1,11,-1
 3255 1293 l 1,12,-1
 3048 1230 l 1,13,-1
 2684 545 l 1,14,-1
 3047 545 l 1,15,-1
 3048 715 l 1,16,-1
 3255 809 l 1,0,-1
EndSplineSet
Fore
SplineSet
817 1618 m 1,0,-1
 1025 1618 l 1,1,-1
 1025 437 l 1,2,-1
 1151 437 l 1,3,-1
 1151 255 l 1,4,-1
 1025 255 l 1,5,-1
 1025 0 l 1,6,-1
 817 0 l 1,7,-1
 817 255 l 1,8,-1
 109 255 l 1,9,10
 111 398 111 398 167 508 c 0,11,12
 817 1618 l 1,0,-1
817 1216 m 1,13,-1
 344 438 l 1,14,-1
 817 437 l 1,15,-1
 817 1216 l 1,13,-1
EndSplineSet
EndChar

StartChar: five
Encoding: 21 53 21
Width: 1302
VWidth: 1667
GlyphClass: 2
Flags: W
HStem: 0 201<409.673 852.699> 903 182<416.85 866.195> 1427 191<429 1040>
VStem: 991 216<351.22 776.495>
LayerCount: 2
Back
SplineSet
-1060 1410 m 1,0,-1
 -1103 1087 l 1,1,2
 -350 1084 -350 1084 -350 564 c 0,3,4
 -350 1 -350 1 -1247 0 c 1,5,-1
 -1330 208 l 1,6,7
 -558 208 -558 208 -558 564 c 0,8,9
 -558 900 -558 900 -1128 900 c 1,10,-1
 -1132 869 l 1,11,-1
 -1350 869 l 1,12,-1
 -1250 1618 l 1,13,-1
 -558 1618 l 1,14,-1
 -558 1410 l 1,15,-1
 -1060 1410 l 1,0,-1
EndSplineSet
Fore
SplineSet
383 1023 m 1,0,1
 486 1084 486 1084 651 1085 c 0,2,3
 1207 1085 1207 1085 1207 579 c 0,4,5
 1207 0 1207 0 651 0 c 0,6,7
 267 0 267 0 95 255 c 1,8,-1
 236 392 l 1,9,10
 384 201 384 201 651 201 c 0,11,12
 991 201 991 201 991 580 c 0,13,14
 991 903 991 903 651 903 c 0,15,16
 459 903 459 903 356 809 c 0,17,18
 312 768 312 768 164 768 c 1,19,-1
 260 1618 l 1,20,-1
 1040 1618 l 1,21,-1
 1040 1430 l 1,22,-1
 429 1427 l 1,23,-1
 383 1023 l 1,0,1
EndSplineSet
EndChar

StartChar: six
Encoding: 22 54 22
Width: 1302
VWidth: 1667
GlyphClass: 2
Flags: W
HStem: 0 182<477.451 825.722> 897 182<472.971 824.93>
VStem: 151 208<307.856 770.791> 943 208<305.522 773.021>
LayerCount: 2
Back
SplineSet
-4126 1507 m 1,23,-1
 -882 257 l 1025,24,-1
-3918 642 m 2,23,-1
 -3918 436 l 2,24,25
 -3918 182 -3918 182 -3626 182 c 128,-1,26
 -3334 182 -3334 182 -3334 436 c 2,27,-1
 -3334 642 l 2,28,29
 -3334 897 -3334 897 -3626 897 c 128,-1,30
 -3918 897 -3918 897 -3918 642 c 2,23,-1
-3176 1162 m 1,31,-1
 -3384 1182 l 1,32,33
 -3384 1437 -3384 1437 -3651 1437 c 128,-1,34
 -3918 1437 -3918 1437 -3918 1182 c 1,35,36
 -3918 1075 -3918 1075 -3918 968 c 1,37,38
 -3810 1079 -3810 1079 -3626 1079 c 0,39,40
 -3126 1078 -3126 1078 -3126 642 c 2,41,-1
 -3126 436 l 2,42,43
 -3126 0 -3126 0 -3626 0 c 128,-1,44
 -4126 0 -4126 0 -4126 436 c 2,45,-1
 -4126 642 l 2,46,47
 -4126 674 -4126 674 -4126 1182 c 1,48,49
 -4126 1618 -4126 1618 -3651 1618 c 128,-1,50
 -3176 1618 -3176 1618 -3176 1162 c 1,31,-1
EndSplineSet
Fore
SplineSet
1151 539 m 0,0,1
 1151 0 1151 0 672 0 c 0,2,3
 151 0 151 0 151 539 c 0,4,5
 151 723 l 0,6,7
 151 1439 151 1439 826 1618 c 1,8,-1
 943 1413 l 1,9,10
 458 1335 458 1335 400 1020 c 1,11,12
 504 1079 504 1079 651 1079 c 0,13,14
 1151 1079 1151 1079 1151 539 c 0,0,1
349 539 m 0,15,16
 349 182 349 182 646 182 c 128,-1,17
 943 182 943 182 943 539 c 0,18,19
 943 897 943 897 646 897 c 128,-1,20
 349 897 349 897 349 539 c 0,15,16
EndSplineSet
Validated: 1
EndChar

StartChar: seven
Encoding: 23 55 23
Width: 1302
VWidth: 1667
GlyphClass: 2
Flags: W
HStem: 0 21G<480 708.5> 1436 182<151 908>
VStem: 480 228<0 448.707>
LayerCount: 2
Back
SplineSet
862 476 m 25,0,-1
 290 476 l 1049,1,-1
457 976 m 1,2,-1
 1255 560 l 1025,3,-1
895 1273 m 1,4,-1
 479 475 l 1025,5,-1
-2954 1435 m 1,0,1
 -3538 1436 l 1,2,-1
 -3538 1224 l 1,3,-1
 -3746 1254 l 1,4,-1
 -3746 1618 l 1,5,-1
 -2746 1618 l 1,6,-1
 -2746 1436 l 1,7,8
 -2746 1267 -2746 1267 -2919 1035 c 0,9,10
 -3142 751 -3142 751 -3142 182 c 2,11,-1
 -3142 0 l 1,12,-1
 -3350 0 l 1,13,-1
 -3350 182 l 2,14,15
 -3350 778 -3350 778 -3081 1168 c 0,16,17
 -2954 1352 -2954 1352 -2954 1435 c 1,0,1
EndSplineSet
Fore
SplineSet
1151 1618 m 1,0,1
 1122 1263 1122 1263 863 764 c 0,2,3
 709 468 709 468 708 0 c 1,4,-1
 480 0 l 1,5,6
 480 473 480 473 682 861 c 0,7,8
 841 1167 841 1167 908 1437 c 1,9,-1
 151 1436 l 5,10,-1
 151 1618 l 1,11,-1
 1151 1618 l 1,0,1
EndSplineSet
Validated: 1
EndChar

StartChar: eight
Encoding: 24 56 24
Width: 1302
VWidth: 1667
GlyphClass: 2
Flags: W
HStem: 0 182<421.952 880.048> 691 182<457.995 844.005> 1437 181<456.385 845.615>
VStem: 104 208<279.139 593.215> 151 208<971.785 1336.5> 943 208<972.029 1336.5> 990 208<279.139 593.215>
LayerCount: 2
Fore
SplineSet
1151 1155 m 4,0,1
 1151 909 1151 909 1025 799 c 5,2,3
 1198 693 1198 693 1198 436 c 4,4,5
 1198 0 1198 0 651 0 c 132,-1,6
 104 0 104 0 104 436 c 4,7,8
 104 693 104 693 277 799 c 5,9,10
 151 908 151 908 151 1155 c 4,11,12
 151 1618 151 1618 651 1618 c 132,-1,13
 1151 1618 1151 1618 1151 1155 c 4,0,1
359 1155 m 132,-1,15
 359 873 359 873 651 873 c 132,-1,16
 943 873 943 873 943 1155 c 132,-1,17
 943 1437 943 1437 651 1437 c 132,-1,14
 359 1437 359 1437 359 1155 c 132,-1,15
651 182 m 132,-1,19
 990 182 990 182 990 436.5 c 132,-1,20
 990 691 990 691 651 691 c 132,-1,21
 312 691 312 691 312 436.5 c 132,-1,18
 312 182 312 182 651 182 c 132,-1,19
EndSplineSet
Validated: 1
EndChar

StartChar: nine
Encoding: 25 57 25
Width: 1302
VWidth: 1667
GlyphClass: 2
Flags: W
HStem: 539 182<477.07 824.668> 1436 182<477.07 824.93>
VStem: 151 208<845.167 1312.48> 943 208<850.995 1309.1>
LayerCount: 2
Fore
SplineSet
828 565 m 1,0,1
 770 539 770 539 651 539 c 0,2,3
 151 540 151 540 151 1079 c 128,-1,4
 151 1618 151 1618 651 1618 c 128,-1,5
 1151 1618 1151 1618 1151 1067 c 0,6,7
 1151 537 1151 537 733 82 c 0,8,9
 608 -54 608 -54 600 -80 c 1,10,-1
 421 22 l 1,11,12
 429 48 429 48 554 184 c 0,13,14
 729 370 729 370 828 565 c 1,0,1
943 1079 m 0,15,16
 943 1436 943 1436 651 1436 c 128,-1,17
 359 1436 359 1436 359 1079 c 0,18,19
 359 721 359 721 651 721 c 128,-1,20
 943 721 943 721 943 1079 c 0,15,16
EndSplineSet
Validated: 1
EndChar

StartChar: colon
Encoding: 26 58 26
Width: 1302
VWidth: 1667
GlyphClass: 2
Flags: W
HStem: 0 312<524.859 777.141> 809 312<524.859 777.141>
VStem: 495 312<29.8594 282.141 838.859 1091.14>
LayerCount: 2
Fore
SplineSet
807 156 m 128,-1,1
 807 0 807 0 651 0 c 128,-1,2
 495 0 495 0 495 156 c 128,-1,3
 495 312 495 312 651 312 c 128,-1,0
 807 312 807 312 807 156 c 128,-1,1
807 965 m 128,-1,5
 807 809 807 809 651 809 c 128,-1,6
 495 809 495 809 495 965 c 128,-1,7
 495 1121 495 1121 651 1121 c 128,-1,4
 807 1121 807 1121 807 965 c 128,-1,5
EndSplineSet
Validated: 1
EndChar

StartChar: semicolon
Encoding: 27 59 27
Width: 1302
VWidth: 1667
GlyphClass: 2
Flags: W
HStem: 809 312<670.859 923.141>
VStem: 641 312<838.859 1091.14>
LayerCount: 2
Fore
SplineSet
359 -358 m 5,0,-1
 651 208 l 5,1,-1
 943 208 l 5,2,-1
 856 0 l 5,3,-1
 539 -358 l 5,4,-1
 359 -358 l 5,0,-1
953 965 m 128,-1,6
 953 809 953 809 797 809 c 128,-1,7
 641 809 641 809 641 965 c 128,-1,8
 641 1121 641 1121 797 1121 c 128,-1,5
 953 1121 953 1121 953 965 c 128,-1,6
EndSplineSet
Validated: 1
EndChar

StartChar: less
Encoding: 28 60 28
Width: 1302
VWidth: 1667
GlyphClass: 2
Flags: W
LayerCount: 2
Fore
SplineSet
1151 1348 m 5,0,-1
 1151 1167 l 5,1,-1
 357 809 l 5,2,-1
 1151 451 l 5,3,-1
 1151 270 l 5,4,-1
 151 718 l 5,5,-1
 151 900 l 5,6,-1
 1151 1348 l 5,0,-1
EndSplineSet
Validated: 1
EndChar

StartChar: equal
Encoding: 29 61 29
Width: 1302
VWidth: 1667
GlyphClass: 2
Flags: W
HStem: 497 182<151 1151> 939 182<151 1151>
LayerCount: 2
Back
SplineSet
1077.66699219 426.666992188 m 1,0,-1
 224.333007812 426.666992188 l 1,1,-1
 224.333007812 954.026367188 l 1,2,-1
 1077.66699219 954.026367188 l 1,3,-1
 1077.66699219 426.666992188 l 1,0,-1
  Named: "gold-rect"
EndSplineSet
Fore
SplineSet
151 497 m 1,0,-1
 151 679 l 1,1,-1
 1151 679 l 1,2,-1
 1151 497 l 1,3,-1
 151 497 l 1,0,-1
151 939 m 1,4,-1
 151 1121 l 1,5,-1
 1151 1121 l 1,6,-1
 1151 939 l 1,7,-1
 151 939 l 1,4,-1
EndSplineSet
Validated: 1
EndChar

StartChar: greater
Encoding: 30 62 30
Width: 1302
VWidth: 1667
GlyphClass: 2
Flags: W
LayerCount: 2
Fore
SplineSet
151 1348 m 1,0,-1
 1151 900 l 1,1,-1
 1151 718 l 1,2,-1
 151 270 l 1,3,-1
 151 451 l 1,4,-1
 945 809 l 1,5,-1
 151 1167 l 1,6,-1
 151 1348 l 1,0,-1
EndSplineSet
Validated: 1
EndChar

StartChar: question
Encoding: 31 63 31
Width: 1302
VWidth: 1667
GlyphClass: 2
Flags: W
HStem: 0 312<524.859 777.141> 1436 182<428.424 874.639>
VStem: 152 208<1254 1368.37> 495 312<29.8594 282.141> 547 208<494 744.783> 944 208<1086.4 1370.1>
LayerCount: 2
Back
SplineSet
-1198 1219 m 0,0,1
 -1198 1011 -1198 1011 -1471 818 c 0,2,3
 -1594 731 -1594 731 -1594 494 c 1,4,-1
 -1802 494 l 1,5,6
 -1802 814 -1802 814 -1600 946 c 0,7,8
 -1407 1072 -1407 1072 -1406 1199 c 0,9,10
 -1406 1431 -1406 1431 -1698 1431 c 128,-1,11
 -1990 1431 -1990 1431 -1990 1121 c 1,12,-1
 -2198 1121 l 1,13,14
 -2197 1618 -2197 1618 -1697.5 1618 c 128,-1,15
 -1198 1618 -1198 1618 -1198 1219 c 0,0,1
-1542 156 m 128,-1,17
 -1542 0 -1542 0 -1698 0 c 128,-1,18
 -1854 0 -1854 0 -1854 156 c 128,-1,19
 -1854 312 -1854 312 -1698 312 c 128,-1,16
 -1542 312 -1542 312 -1542 156 c 128,-1,17
EndSplineSet
Fore
SplineSet
878 828 m 0,0,1
 755 744 755 744 755 494 c 1,2,-1
 547 494 l 1,3,4
 547 814 547 814 745 943 c 0,5,6
 944 1072 944 1072 944 1254 c 129,-1,7
 944 1436 944 1436 652 1436 c 136,-1,8
 360 1436 360 1436 360 1254 c 1,9,-1
 152 1254 l 1,10,11
 152 1618 152 1618 651 1618 c 136,-1,12
 1150 1618 1150 1618 1152 1254 c 1,13,14
 1148 1012 1148 1012 878 828 c 0,0,1
807 156 m 128,-1,16
 807 0 807 0 651 0 c 128,-1,17
 495 0 495 0 495 156 c 128,-1,18
 495 312 495 312 651 312 c 128,-1,15
 807 312 807 312 807 156 c 128,-1,16
EndSplineSet
Validated: 1
EndChar

StartChar: at
Encoding: 32 64 32
Width: 1302
VWidth: 1667
GlyphClass: 2
Flags: W
HStem: 0 182<524.102 1089> 449 182<657.226 1029> 985 182<657.226 1029> 1436 182<522.699 963.799>
VStem: 106 166<476.288 1141.5> 413 166<701.194 915.89> 1029 164<631 985 1167 1368.37>
LayerCount: 2
Back
SplineSet
-2125 1436 m 4,0,1
 -2485 1436 -2485 1436 -2485 809 c 132,-1,3
 -2485 182 -2485 182 -2128 182 c 6,4,-1
 -1653 182 l 5,5,-1
 -1747 0 l 5,6,-1
 -2128 0 l 6,7,8
 -2668 0 -2668 0 -2668 809 c 132,-1,9
 -2668 1618 -2668 1618 -2125.5 1618 c 132,-1,10
 -1583 1618 -1583 1618 -1583 1254 c 6,11,-1
 -1583 449 l 5,12,-1
 -1869 449 l 6,13,14
 -2343 449 -2343 449 -2343 807 c 4,15,16
 -2342 1167 -2342 1167 -1869 1167 c 6,17,-1
 -1747 1167 l 5,18,19
 -1748 1254.70410156 l 6,20,21
 -1748 1436 -1748 1436 -2125 1436 c 4,0,1
-2197 809 m 4,22,23
 -2197 631 -2197 631 -1869 631 c 6,24,-1
 -1747 631 l 5,25,-1
 -1747 985 l 5,26,-1
 -1869 985 l 6,27,28
 -2196 985 -2196 985 -2197 809 c 4,22,23
EndSplineSet
Fore
SplineSet
760 1436 m 0,0,1
 272 1435 272 1435 272 809 c 0,2,3
 272 182 272 182 760 182 c 2,4,-1
 1089 182 l 1,5,-1
 1089 0 l 1,6,-1
 760 0 l 2,7,8
 106 0 106 0 106 809 c 128,-1,9
 106 1618 106 1618 760 1618 c 0,10,11
 1193 1618 1193 1618 1193 1254 c 2,12,-1
 1193 449 l 1,13,-1
 907 449 l 2,14,15
 413 449 413 449 413 809 c 0,16,17
 413 1167 413 1167 907 1167 c 2,18,-1
 1029 1167 l 1,19,-1
 1028 1255 l 2,20,21
 1026 1436 1026 1436 760 1436 c 0,0,1
579 809 m 0,22,23
 579 631 579 631 907 631 c 2,24,-1
 1029 631 l 1,25,-1
 1029 985 l 1,26,-1
 907 985 l 2,27,28
 580 985 580 985 579 809 c 0,22,23
EndSplineSet
Validated: 1
EndChar

StartChar: A
Encoding: 33 65 33
Width: 1302
VWidth: 1667
GlyphClass: 2
Flags: W
HStem: 0 21G<111 298.821 957.851 1191> 536 182<501 779> 1598 20G<541.611 767.303>
LayerCount: 2
Back
SplineSet
547 1618 m 1,0,-1
 963 0 l 1025
293 0 m 1,2,-1
 762 1618 l 1053
EndSplineSet
Fore
SplineSet
963 0 m 1,0,-1
 825 536 l 1,1,-1
 449 536 l 1,2,-1
 293 0 l 1,3,-1
 111 0 l 1,4,-1
 547 1618 l 1,5,-1
 762 1618 l 1,6,-1
 1191 0 l 1,7,-1
 963 0 l 1,0,-1
501 718 m 1,8,-1
 779 718 l 1,9,-1
 648 1265 l 1,10,-1
 501 718 l 1,8,-1
EndSplineSet
Validated: 1
EndChar

StartChar: B
Encoding: 34 66 34
Width: 1302
VWidth: 1667
GlyphClass: 2
Flags: W
HStem: 0 182<359 869.75> 809 182<359 785.522> 1436 182<359 787.632>
VStem: 151 208<182 809 991 1436> 844 208<1045.43 1377.7> 943 208<249.628 744.838>
LayerCount: 2
Fore
SplineSet
359 182 m 5,0,-1
 651 182 l 6,1,2
 943 182 943 182 943 364 c 6,3,-1
 943 627 l 6,4,5
 943 809 943 809 651 809 c 6,6,-1
 359 809 l 5,7,-1
 359 182 l 5,0,-1
601 1618 m 6,8,9
 1052 1618 1052 1618 1052 1254 c 6,10,11
 1052 1173 l 6,12,13
 1052 1024 1052 1024 957 929 c 5,14,15
 1151 827 1151 827 1151 627 c 6,16,-1
 1151 364 l 6,17,18
 1151 0 1151 0 651 0 c 6,19,-1
 151 0 l 5,20,-1
 151 1618 l 5,21,-1
 601 1618 l 6,8,9
359 991 m 5,22,-1
 601 991 l 6,23,24
 843 991 843 991 844 1173 c 6,25,26
 844 1254 l 6,27,28
 844 1436 844 1436 601 1436 c 6,29,-1
 359 1436 l 5,30,-1
 359 991 l 5,22,-1
EndSplineSet
Validated: 1
EndChar

StartChar: C
Encoding: 35 67 35
Width: 1302
VWidth: 1667
GlyphClass: 2
Flags: W
HStem: 0 182<432.25 1151> 1436 182<432.25 1151>
VStem: 151 208<249.628 1368.37>
LayerCount: 2
Back
SplineSet
-2342 182 m 128,-1,1
 -2050 182 -2050 182 -2050 364 c 1,2,-1
 -1842 364 l 1,3,4
 -1842 1 -1842 1 -2342 0 c 0,5,6
 -2842 0 -2842 0 -2842 364 c 2,7,-1
 -2842 1254 l 2,8,9
 -2842 1618 -2842 1618 -2342 1618 c 0,10,11
 -1842 1617 -1842 1617 -1842 1254 c 1,12,-1
 -2050 1254 l 1,13,14
 -2050 1436 -2050 1436 -2342 1436 c 128,-1,15
 -2634 1436 -2634 1436 -2634 1254 c 2,16,-1
 -2634 364 l 2,17,0
 -2634 182 -2634 182 -2342 182 c 128,-1,1
-1491 809 m 1049,18,-1
EndSplineSet
Fore
SplineSet
151 364 m 2,0,-1
 151 1254 l 2,1,2
 151 1618 151 1618 651 1618 c 2,3,-1
 1151 1618 l 1,4,-1
 1151 1436 l 1,5,-1
 651 1436 l 1,6,7
 359 1433 359 1433 359 1254 c 2,8,-1
 359 364 l 2,9,10
 359 182 359 182 651 182 c 2,11,-1
 1151 182 l 1,12,-1
 1151 0 l 1,13,-1
 651 0 l 2,14,15
 151 0 151 0 151 364 c 2,0,-1
EndSplineSet
Validated: 1
EndChar

StartChar: D
Encoding: 36 68 36
Width: 1302
VWidth: 1667
GlyphClass: 2
Flags: W
HStem: 0 182<359 686.744> 1436 182<359 686.744>
VStem: 151 208<182 1436> 943 208<402.589 1215.41>
LayerCount: 2
Back
SplineSet
-1122 1618 m 2,0,1
 -622 1618 -622 1618 -622 1182 c 2,2,-1
 -622 436 l 2,3,4
 -622 0 -622 0 -1122 0 c 2,5,6
 -1622 0 l 1,7,-1
 -1622 1618 l 1,8,-1
 -1122 1618 l 2,0,1
-1414 182 m 1,9,-1
 -1122 182 l 2,10,11
 -830 182 -830 182 -830 436 c 2,12,-1
 -830 1182 l 2,13,14
 -830 1436 -830 1436 -1122 1436 c 0,15,16
 -1414 1436 l 1,17,-1
 -1414 182 l 1,9,-1
EndSplineSet
Fore
SplineSet
1151 1009 m 2,0,-1
 1151 609 l 2,1,2
 1151 0 1151 0 359 0 c 1,3,4
 255 0 255 0 151 0 c 1,5,-1
 151 1618 l 1,6,-1
 359 1618 l 1,7,8
 1151 1618 1151 1618 1151 1009 c 2,0,-1
359 182 m 1,9,10
 943 182 943 182 943 609 c 2,11,-1
 943 1009 l 2,12,13
 943 1436 943 1436 359 1436 c 5,14,-1
 359 182 l 1,9,10
EndSplineSet
Validated: 1
EndChar

StartChar: E
Encoding: 37 69 37
Width: 1302
VWidth: 1667
GlyphClass: 2
Flags: W
HStem: 0 182<359 1151> 718 182<359 1047> 1436 182<359 1151>
VStem: 151 208<182 718 900 1436>
CounterMasks: 1 e0
LayerCount: 2
Fore
SplineSet
1151 0 m 1,0,-1
 151 0 l 1,1,-1
 151 1618 l 1,2,-1
 1151 1618 l 1,3,-1
 1151 1436 l 1,4,-1
 359 1436 l 1,5,-1
 359 900 l 1,6,-1
 1047 900 l 1,7,-1
 1047 718 l 1,8,-1
 359 718 l 1,9,-1
 359 182 l 1,10,-1
 1151 182 l 1,11,-1
 1151 0 l 1,0,-1
EndSplineSet
Validated: 1
EndChar

StartChar: F
Encoding: 38 70 38
Width: 1302
VWidth: 1667
GlyphClass: 2
Flags: W
HStem: 0 21G<151 359> 718 182<359 1047> 1436 182<359 1151>
VStem: 151 208<0 718 900 1436>
LayerCount: 2
Fore
SplineSet
151 0 m 1,0,-1
 151 1618 l 1,1,-1
 1151 1618 l 1,2,-1
 1151 1436 l 1,3,-1
 359 1436 l 1,4,-1
 359 900 l 1,5,-1
 1047 900 l 1,6,-1
 1047 718 l 1,7,-1
 359 718 l 1,8,-1
 359 0 l 1,9,-1
 151 0 l 1,0,-1
EndSplineSet
Validated: 1
EndChar

StartChar: G
Encoding: 39 71 39
Width: 1302
VWidth: 1667
GlyphClass: 2
Flags: W
HStem: 0 182<427.705 874.295> 718 182<567 943> 1436 182<432.25 1047>
VStem: 151 208<249.628 1368.37> 943 208<249.628 718>
CounterMasks: 1 e0
LayerCount: 2
Back
SplineSet
-1620 1254.00097656 m 5,0,-1
 -1828 1254.00097656 l 5,1,2
 -1828 1436.00097656 -1828 1436.00097656 -2120 1436.00097656 c 132,-1,3
 -2412 1436.00097656 -2412 1436.00097656 -2412 1254.00097656 c 6,4,-1
 -2412 364.000976562 l 6,5,6
 -2412 182.000976562 -2412 182.000976562 -2120 182.000976562 c 132,-1,7
 -1828 182.000976562 -1828 182.000976562 -1828 364.000976562 c 6,8,-1
 -1828 718.000976562 l 5,9,-1
 -2075 718.000976562 l 5,10,-1
 -2075 900.000976562 l 5,11,-1
 -1620 900.000976562 l 5,12,-1
 -1620 364.000976562 l 6,13,14
 -1620 0.0009765625 -1620 0.0009765625 -2120 0.0009765625 c 132,-1,15
 -2620 0.0009765625 -2620 0.0009765625 -2620 364.000976562 c 6,16,-1
 -2620 1254.00097656 l 6,17,18
 -2620 1618.00097656 -2620 1618.00097656 -2120 1618.00097656 c 132,-1,19
 -1620 1618.00097656 -1620 1618.00097656 -1620 1254.00097656 c 5,0,-1
EndSplineSet
Fore
SplineSet
651 1436 m 0,0,1
 359 1436 359 1436 359 1254 c 2,2,-1
 359 364 l 2,3,4
 359 182 359 182 651 182 c 128,-1,5
 943 182 943 182 943 364 c 2,6,-1
 943 718 l 1,7,-1
 567 718 l 1,8,-1
 567 900 l 1,9,-1
 1151 900 l 1,10,-1
 1151 364 l 2,11,12
 1151 0 1151 0 651 0 c 128,-1,13
 151 0 151 0 151 364 c 2,14,-1
 151 1254 l 2,15,16
 151 1618 151 1618 651 1618 c 0,17,18
 1047 1618 l 1,19,-1
 1047 1436 l 1,20,21
 651 1436 l 0,0,1
EndSplineSet
Validated: 1
EndChar

StartChar: H
Encoding: 40 72 40
Width: 1302
VWidth: 1667
GlyphClass: 2
Flags: W
HStem: 0 21G<151 359 943 1151> 718 182<359 943> 1598 20G<151 359 943 1151>
VStem: 151 208<0 718 900 1618> 943 208<0 718 900 1618>
LayerCount: 2
Fore
SplineSet
359 0 m 1,0,-1
 151 0 l 1,1,-1
 151 1618 l 1,2,-1
 359 1618 l 1,3,-1
 359 900 l 1,4,-1
 943 900 l 1,5,-1
 943 1618 l 1,6,-1
 1151 1618 l 1,7,-1
 1151 0 l 1,8,-1
 943 0 l 1,9,-1
 943 718 l 1,10,-1
 359 718 l 1,11,-1
 359 0 l 1,0,-1
EndSplineSet
Validated: 1
EndChar

StartChar: I
Encoding: 41 73 41
Width: 1302
VWidth: 1667
GlyphClass: 2
Flags: W
HStem: 0 182<255 547 755 1047> 1436 182<255 547 755 1047>
VStem: 547 208<182 1436>
LayerCount: 2
Fore
SplineSet
255 182 m 1,0,-1
 547 182 l 1,1,-1
 547 1436 l 1,2,-1
 255 1436 l 1,3,-1
 255 1618 l 1,4,-1
 1047 1618 l 5,5,-1
 1047 1436 l 5,6,-1
 755 1436 l 1,7,-1
 755 182 l 1,8,-1
 1047 182 l 5,9,-1
 1047 0 l 5,10,-1
 255 0 l 1,11,-1
 255 182 l 1,0,-1
EndSplineSet
Validated: 1
EndChar

StartChar: J
Encoding: 42 74 42
Width: 1302
VWidth: 1667
GlyphClass: 2
Flags: W
HStem: 0 182<151 869.75> 1598 20G<943 1151>
VStem: 943 208<249.628 1618>
LayerCount: 2
Fore
SplineSet
943 364 m 2,0,-1
 943 1618 l 1,1,-1
 1151 1618 l 1,2,-1
 1151 364 l 2,3,4
 1151 0 1151 0 651 0 c 2,5,-1
 151 0 l 1,6,-1
 151 182 l 1,7,-1
 651 182 l 2,8,9
 943 182 943 182 943 364 c 2,0,-1
EndSplineSet
Validated: 1
EndChar

StartChar: K
Encoding: 43 75 43
Width: 1302
VWidth: 1667
GlyphClass: 2
Flags: W
HStem: 0 21G<151 359 896.382 1151> 1598 20G<151 359 895.403 1151>
VStem: 151 208<0 509 809 1618>
LayerCount: 2
Back
SplineSet
359 809 m 25,0,-1
 910 0 l 1025
359 508 m 1,1,-1
 1151 1618 l 1025,2,-1
-909.280273438 672.426757812 m 1025,3,-1
EndSplineSet
Fore
SplineSet
359 0 m 1,0,-1
 151 0 l 1,1,-1
 151 1618 l 1,2,-1
 359 1618 l 1,3,-1
 359 809 l 1,4,-1
 909 1618 l 1,5,-1
 1151 1618 l 1,6,-1
 574 809 l 1,7,-1
 1151 0 l 1,8,-1
 910 0 l 1,9,-1
 464 655 l 1,10,-1
 359 509 l 1,11,-1
 359 0 l 1,0,-1
EndSplineSet
Validated: 1
EndChar

StartChar: L
Encoding: 44 76 44
Width: 1302
VWidth: 1667
GlyphClass: 2
Flags: W
HStem: 0 182<359 1151> 1598 20G<151 359>
VStem: 151 208<182 1618>
LayerCount: 2
Fore
SplineSet
1151 0 m 1,0,-1
 151 0 l 5,1,-1
 151 1618 l 1,2,-1
 359 1618 l 1,3,-1
 359 182 l 1,4,-1
 1151 182 l 1,5,-1
 1151 0 l 1,0,-1
EndSplineSet
Validated: 1
EndChar

StartChar: M
Encoding: 45 77 45
Width: 1302
VWidth: 1667
GlyphClass: 2
Flags: W
HStem: 0 21G<80 291 1011 1222> 1598 20G<80 296.213 1005.79 1222>
VStem: 80 208<0 1132> 1014 208<0 1132>
LayerCount: 2
Fore
SplineSet
754 539 m 1,0,-1
 548 539 l 1,1,-1
 288 1132 l 1,2,-1
 291 0 l 1,3,-1
 80 0 l 1,4,-1
 80 1618 l 1,5,-1
 288 1618 l 1,6,-1
 651 734 l 1,7,-1
 1014 1618 l 1,8,-1
 1222 1618 l 1,9,-1
 1222 0 l 1,10,-1
 1011 0 l 1,11,-1
 1014 1132 l 1,12,-1
 754 539 l 1,0,-1
EndSplineSet
Validated: 1
EndChar

StartChar: N
Encoding: 46 78 46
Width: 1302
VWidth: 1667
GlyphClass: 2
Flags: W
HStem: 0 21G<151 359 933.118 1151> 1598 20G<151 368.882 943 1151>
VStem: 151 208<0 1182> 943 208<436 1618>
LayerCount: 2
Fore
SplineSet
1151 1618 m 1,0,-1
 1151 0 l 1,1,-1
 943 0 l 1,2,-1
 359 1182 l 1,3,-1
 359 0 l 1,4,-1
 151 0 l 1,5,-1
 151 1618 l 1,6,-1
 359 1618 l 1,7,-1
 943 436 l 1,8,-1
 943 1618 l 1,9,-1
 1151 1618 l 1,0,-1
EndSplineSet
Validated: 1
EndChar

StartChar: O
Encoding: 47 79 47
Width: 1302
VWidth: 1667
GlyphClass: 2
Flags: W
HStem: 0 182<427.705 874.295> 1436 182<427.705 874.295>
VStem: 151 208<249.628 1368.37> 943 208<249.628 1368.37>
LayerCount: 2
Fore
SplineSet
359 1254 m 2,0,-1
 359 364 l 2,1,2
 359 182 359 182 651 182 c 128,-1,3
 943 182 943 182 943 364 c 2,4,-1
 943 1254 l 2,5,6
 943 1436 943 1436 651 1436 c 128,-1,7
 359 1436 359 1436 359 1254 c 2,0,-1
1151 1254 m 2,8,-1
 1151 364 l 2,9,10
 1151 0 1151 0 651 0 c 136,-1,11
 151 0 151 0 151 364 c 2,12,-1
 151 1254 l 2,13,14
 151 1618 151 1618 651 1618 c 144,-1,15
 1151 1618 1151 1618 1151 1254 c 2,8,-1
EndSplineSet
Validated: 1
EndChar

StartChar: P
Encoding: 48 80 48
Width: 1302
VWidth: 1667
GlyphClass: 2
Flags: W
HStem: 0 21G<151 359> 718 182<359 869.75> 1436 182<359 869.75>
VStem: 151 208<0 718 900 1436> 943 208<967.628 1368.09>
LayerCount: 2
Fore
SplineSet
651 1618 m 30,0,1
 1151 1617 1151 1617 1151 1254 c 6,2,-1
 1151 1082 l 6,3,4
 1151 718 1151 718 651 718 c 6,5,-1
 359 718 l 5,6,-1
 359 0 l 5,7,-1
 151 0 l 5,8,-1
 151 1618 l 5,9,-1
 651 1618 l 30,0,1
359 900 m 5,10,-1
 651 900 l 6,11,12
 943 900 943 900 943 1082 c 6,13,14
 943 1254 l 6,15,16
 943 1436 943 1436 651 1436 c 6,17,-1
 359 1436 l 5,18,-1
 359 900 l 5,10,-1
EndSplineSet
Validated: 1
EndChar

StartChar: Q
Encoding: 49 81 49
Width: 1302
VWidth: 1667
GlyphClass: 2
Flags: W
HStem: 0 182<432.25 651 950.103 1151> 1436 182<427.705 874.295>
VStem: 151 208<249.628 1368.37> 651 198<369.916 531> 943 208<436 1368.37>
LayerCount: 2
Back
SplineSet
-492 182 m 1,0,-1
 -492 0 l 1,1,2
 -742 0 -742 0 -867 109 c 1,3,-1
 -992 0 l 1,4,5
 -1492 0 -1492 0 -1492 436 c 2,6,-1
 -1492 1182 l 2,7,8
 -1492 1618 -1492 1618 -992 1618 c 128,-1,9
 -492 1618 -492 1618 -492 1182 c 2,10,-1
 -492 436 l 1,11,-1
 -711 245 l 1,12,13
 -638 182 -638 182 -492 182 c 1,0,-1
-700 436 m 1,14,-1
 -700 1182 l 2,15,16
 -700 1436 -700 1436 -992 1436 c 128,-1,17
 -1284 1436 -1284 1436 -1284 1182 c 2,18,-1
 -1284 436 l 2,19,20
 -1284 182 -1284 182 -992 182 c 1,21,-1
 -949 219 l 1,22,23
 -992 309 -992 309 -992 436 c 1,24,-1
 -784 436 l 1,25,26
 -784 399 -784 399 -778 368 c 1,27,-1
 -700 436 l 1,14,-1
EndSplineSet
Fore
SplineSet
1151 182 m 1,0,-1
 1151 0 l 1,1,2
 901 0 901 0 776 109 c 1,3,-1
 651 0 l 1,4,5
 151 0 151 0 151 364 c 2,6,-1
 151 1254 l 2,7,8
 151 1618 151 1618 651 1618 c 128,-1,9
 1151 1618 1151 1618 1151 1254 c 2,10,-1
 1151 436 l 1,11,-1
 932 245 l 1,12,13
 1005 182 1005 182 1151 182 c 1,0,-1
943 436 m 1,14,-1
 943 1254 l 2,15,16
 943 1436 943 1436 651 1436 c 128,-1,17
 359 1436 359 1436 359 1254 c 2,18,-1
 359 364 l 2,19,20
 359 182 359 182 651 182 c 1,21,-1
 694 219 l 1,22,23
 651 311 651 311 651 531 c 1,24,-1
 849 531 l 1,25,26
 849 429 849 429 865 368 c 1,27,-1
 943 436 l 1,14,-1
EndSplineSet
EndChar

StartChar: R
Encoding: 50 82 50
Width: 1302
VWidth: 1667
GlyphClass: 2
Flags: W
HStem: 0 21G<151 359 839 1171> 718 182<359 565.99> 1436 182<359 869.75>
VStem: 151 208<0 718 900 1436> 933 238<0 154.711> 943 208<967.279 1368.09>
LayerCount: 2
Back
SplineSet
-1161 718 m 1,0,-1
 -1161 0 l 1,1,-1
 -1369 0 l 1,2,-1
 -1369 1618 l 1,3,-1
 -869 1618 l 2,4,5
 -369 1618 -369 1618 -369 1168 c 0,6,7
 -369 829 -369 829 -653 745 c 1,8,9
 -387 528 -387 528 -369 0 c 1,10,-1
 -577 0 l 1,11,12
 -632 718 -632 718 -1154 718 c 2,13,-1
 -1161 718 l 1,0,-1
-1161 900 m 1,14,-1
 -869 900 l 2,15,16
 -577 901 -577 901 -577 1168 c 0,17,18
 -577 1436 -577 1436 -869 1436 c 2,19,-1
 -1161 1436 l 1,20,-1
 -1161 900 l 1,14,-1
1107 544 m 25,0,-1
 1437 606 l 1049
  Named: "NOTE:ALL ANGLES ARE FIXED!DON'T EDIT!"
EndSplineSet
Fore
SplineSet
651 1618 m 1,0,1
 1151 1617 1151 1617 1151 1254 c 2,2,-1
 1151 1082 l 2,3,4
 1151 773 1151 773 790 726 c 1,5,6
 1058 424 1058 424 1171 0 c 1,7,-1
 933 0 l 1,8,9
 745 690 745 690 422 718 c 5,10,-1
 359 718 l 1,11,-1
 359 0 l 1,12,-1
 151 0 l 1,13,-1
 151 1618 l 1,14,-1
 651 1618 l 1,0,1
359 900 m 1,15,-1
 651 900 l 2,16,17
 943 900 943 900 943 1082 c 2,18,-1
 943 1254 l 2,19,20
 943 1436 943 1436 651 1436 c 2,21,-1
 359 1436 l 1,22,-1
 359 900 l 1,15,-1
EndSplineSet
Validated: 1
EndChar

StartChar: S
Encoding: 51 83 51
Width: 1302
VWidth: 1667
GlyphClass: 2
Flags: W
HStem: 0 182<255 869.75> 1436 182<432.25 1151>
VStem: 151 208<1014.64 1368.37> 943 208<249.628 606.922>
LayerCount: 2
Back
SplineSet
-3266 900 m 0,0,1
 -2766 900 -2766 900 -2766 607 c 2,2,-1
 -2766 364 l 2,3,4
 -2766 0 -2766 0 -3266 0 c 2,5,-1
 -3662 0 l 1,6,-1
 -3662 182 l 1,7,-1
 -3266 182 l 2,8,9
 -2974 182 -2974 182 -2974 364 c 2,10,-1
 -2974 607 l 2,11,12
 -2974 715 -2974 715 -3266 718 c 16,13,14
 -3766 718 -3766 718 -3766 1041 c 2,15,-1
 -3766 1254 l 2,16,17
 -3766 1618 -3766 1618 -3266 1618 c 2,18,-1
 -2766 1618 l 1,19,-1
 -2766 1436 l 1,20,-1
 -3266 1436 l 2,21,22
 -3558 1436 -3558 1436 -3558 1254 c 2,23,-1
 -3558 1041 l 2,24,25
 -3558 900 -3558 900 -3266 900 c 0,0,1
-4522 182 m 152,-1,1
 -4230 182 -4230 182 -4230 364 c 2,2,-1
 -4230 527 l 2,3,4
 -4230 636 -4230 636 -4570 732 c 0,5,6
 -5022 860 -5022 860 -5022 1091 c 2,7,-1
 -5022 1254 l 2,8,9
 -5022 1618 -5022 1618 -4522 1618 c 24,10,11
 -4022 1617 -4022 1617 -4022 1254 c 2,12,-1
 -4230 1254 l 2,13,14
 -4230 1436 -4230 1436 -4522 1436 c 152,-1,15
 -4814 1436 -4814 1436 -4814 1254 c 2,16,-1
 -4814 1091 l 2,17,18
 -4814 983 -4814 983 -4474 886 c 24,19,20
 -4022 754 -4022 754 -4022 527 c 2,21,-1
 -4022 364 l 2,22,23
 -4022 0 -4022 0 -4522 0 c 24,24,25
 -5022 1 -5022 1 -5022 364 c 2,26,-1
 -4814 364 l 2,27,0
 -4814 182 -4814 182 -4522 182 c 152,-1,1
359 983 m 1,0,-1
 1151 758 l 1,1,-1
 943 635 l 1,2,-1
 151 860 l 1,3,-1
 359 983 l 1,0,-1
-2013 182 m 1,0,1
 -1721 184 -1721 184 -1721 436 c 0,2,3
 -1721 615.584960938 -1721 615.584960938 -2062 729 c 0,4,5
 -2513 879 -2513 879 -2513 1071 c 2,6,-1
 -2513 1254 l 2,7,8
 -2513 1618 -2513 1618 -2013 1618 c 2,9,-1
 -1513 1618 l 1,10,-1
 -1513 1436 l 1,11,-1
 -2013 1436 l 2,12,13
 -2305 1436 -2305 1436 -2305 1254 c 2,14,-1
 -2305 1071 l 2,15,16
 -2305 989 -2305 989 -1964 889 c 0,17,18
 -1513 745.15234375 -1513 745.15234375 -1513 436 c 0,19,20
 -1513 0 -1513 0 -2013 0 c 2,21,-1
 -2463 0 l 1,22,-1
 -2513 182 l 1,23,-1
 -2013 182 l 1,0,1
151 0 m 1,0,-1
 1151 1618 l 1049
EndSplineSet
Fore
SplineSet
651 182 m 2,0,1
 943 182 943 182 943 364 c 2,2,-1
 943 527 l 2,3,4
 943 636 943 636 603 732 c 0,5,6
 151 860 151 860 151 1091 c 2,7,-1
 151 1254 l 2,8,9
 151 1618 151 1618 651 1618 c 2,10,-1
 1151 1618 l 1,11,-1
 1151 1436 l 1,12,-1
 651 1436 l 2,13,14
 359 1436 359 1436 359 1254 c 2,15,-1
 359 1091 l 2,16,17
 359 984 359 984 699 886 c 24,18,19
 1151 755 1151 755 1151 527 c 2,20,-1
 1151 364 l 2,21,22
 1151 0 1151 0 651 0 c 2,23,-1
 255 0 l 1,24,-1
 255 182 l 1,25,-1
 651 182 l 2,0,1
EndSplineSet
Validated: 1
EndChar

StartChar: T
Encoding: 52 84 52
Width: 1302
VWidth: 1667
GlyphClass: 2
Flags: W
HStem: 0 21G<547 755> 1436 182<151 547 755 1151>
VStem: 547 208<0 1436>
LayerCount: 2
Fore
SplineSet
1151 1436 m 1,0,-1
 755 1436 l 5,1,-1
 755 0 l 5,2,-1
 547 0 l 1,3,-1
 547 1436 l 1,4,-1
 151 1436 l 1,5,-1
 151 1618 l 1,6,-1
 1151 1618 l 1,7,-1
 1151 1436 l 1,0,-1
EndSplineSet
Validated: 1
EndChar

StartChar: U
Encoding: 53 85 53
Width: 1302
VWidth: 1667
GlyphClass: 2
Flags: W
HStem: 0 182<427.705 874.295> 1598 20G<151 359 943 1151>
VStem: 151 208<249.628 1618> 943 208<249.628 1618>
LayerCount: 2
Fore
SplineSet
1151 1618 m 1,0,-1
 1151 364 l 2,1,2
 1151 0 1151 0 651 0 c 136,-1,3
 151 0 151 0 151 364 c 2,4,-1
 151 1618 l 1,5,-1
 359 1618 l 1,6,-1
 359 364 l 2,7,8
 359 182 359 182 651 182 c 128,-1,9
 943 182 943 182 943 364 c 2,10,-1
 943 1618 l 1,11,-1
 1151 1618 l 1,0,-1
EndSplineSet
Validated: 1
EndChar

StartChar: V
Encoding: 54 86 54
Width: 1302
VWidth: 1667
GlyphClass: 2
Flags: W
HStem: 0 21G<531.302 770.55> 1598 20G<76 344.095 977.905 1214>
LayerCount: 2
Fore
SplineSet
661 354 m 1,0,-1
 983 1618 l 1,1,-1
 1214 1618 l 1,2,-1
 765 0 l 1,3,-1
 537 0 l 1,4,-1
 76 1618 l 1,5,-1
 339 1618 l 1,6,-1
 661 354 l 1,0,-1
EndSplineSet
Validated: 1
EndChar

StartChar: W
Encoding: 55 87 55
Width: 1302
VWidth: 1667
GlyphClass: 2
Flags: W
HStem: 0 21G<80 295.691 1006.31 1222> 1059 20G<518.994 783.006> 1598 20G<80 291 1011 1222>
VStem: 80 208<546 1618> 1014 208<546 1618>
LayerCount: 2
Fore
SplineSet
774 1079 m 1,0,-1
 1014 546 l 1,1,-1
 1011 1618 l 1,2,-1
 1222 1618 l 1,3,-1
 1222 0 l 1,4,-1
 1014 0 l 1,5,-1
 651 944 l 1,6,-1
 288 0 l 1,7,-1
 80 0 l 1,8,-1
 80 1618 l 1,9,-1
 291 1618 l 1,10,-1
 288 546 l 1,11,-1
 528 1079 l 1,12,-1
 774 1079 l 1,0,-1
EndSplineSet
Validated: 1
EndChar

StartChar: X
Encoding: 56 88 56
Width: 1302
VWidth: 1667
GlyphClass: 2
Flags: W
HStem: 0 21G<80 325.049 976.951 1222> 1598 20G<80 325.049 976.951 1222>
LayerCount: 2
Fore
SplineSet
1222 0 m 1,0,-1
 988 0 l 1,1,-1
 651 610 l 1,2,-1
 314 0 l 1,3,-1
 80 0 l 1,4,-1
 544 809 l 1,5,-1
 80 1618 l 1,6,-1
 314 1618 l 1,7,-1
 651 1008 l 1,8,-1
 988 1618 l 1,9,-1
 1222 1618 l 1,10,-1
 758 809 l 1,11,-1
 1222 0 l 1,0,-1
EndSplineSet
Validated: 1
EndChar

StartChar: Y
Encoding: 57 89 57
Width: 1302
VWidth: 1667
GlyphClass: 2
Flags: W
HStem: 0 21G<547 755> 1598 20G<111 328.248 973.752 1191>
VStem: 547 208<0 718>
LayerCount: 2
Back
SplineSet
-1800 1618 m 5,0,1
 -1800 807 -1800 807 -2196 723 c 5,2,-1
 -2196 0 l 5,3,-1
 -2404 0 l 5,4,-1
 -2404 723 l 5,5,6
 -2800 806 -2800 806 -2800 1618 c 5,7,-1
 -2592 1618 l 5,8,9
 -2592 900 -2592 900 -2300 900 c 132,-1,10
 -2008 900 -2008 900 -2008 1618 c 5,11,-1
 -1800 1618 l 5,0,1
-459 1618 m 1,0,-1
 -459 1155 l 2,1,2
 -459 767 -459 767 -855 723 c 1,3,-1
 -855 0 l 1,4,-1
 -1063 0 l 1,5,-1
 -1063 723 l 1,6,7
 -1459 766 -1459 766 -1459 1155 c 2,8,-1
 -1459 1618 l 1,9,-1
 -1251 1618 l 1,10,-1
 -1251 1155 l 2,11,12
 -1251 900 -1251 900 -959 900 c 128,-1,13
 -667 900 -667 900 -667 1155 c 2,14,-1
 -667 1618 l 1,15,-1
 -459 1618 l 1,0,-1
EndSplineSet
Fore
SplineSet
1191 1618 m 5,0,1
 755 718 l 1,2,-1
 755 0 l 1,3,-1
 547 0 l 1,4,-1
 547 718 l 1,5,6
 111 1618 l 1,7,-1
 319 1618 l 1,8,9
 651 900 l 1,10,11
 983 1618 l 5,12,-1
 1191 1618 l 5,0,1
EndSplineSet
Validated: 1
EndChar

StartChar: Z
Encoding: 58 90 58
Width: 1302
VWidth: 1667
GlyphClass: 2
Flags: W
HStem: 0 182<394 1151> 1436 182<151 908>
LayerCount: 2
Fore
SplineSet
908 1436 m 1,0,-1
 151 1436 l 1,1,-1
 151 1618 l 1,2,-1
 1151 1618 l 1,3,-1
 1151 1436 l 1,4,-1
 394 182 l 1,5,-1
 1151 182 l 1,6,-1
 1151 0 l 1,7,-1
 151 0 l 1,8,-1
 151 182 l 1,9,-1
 908 1436 l 1,0,-1
EndSplineSet
Validated: 1
EndChar

StartChar: bracketleft
Encoding: 59 91 59
Width: 1302
VWidth: 1667
GlyphClass: 2
Flags: W
HStem: -182 182<567 1151> 1436 182<567 1151>
VStem: 359 208<0 1436>
LayerCount: 2
Fore
SplineSet
359 -182 m 1,0,-1
 359 1618 l 1,1,-1
 1151 1618 l 1,2,-1
 1151 1436 l 1,3,-1
 567 1436 l 1,4,-1
 567 0 l 1,5,-1
 1151 0 l 1,6,-1
 1151 -182 l 1,7,-1
 359 -182 l 1,0,-1
EndSplineSet
Validated: 1
EndChar

StartChar: backslash
Encoding: 60 92 60
Width: 1302
VWidth: 1667
GlyphClass: 2
Flags: W
HStem: 0 21G<923.334 1151> 1598 20G<151 388.543>
LayerCount: 2
Fore
SplineSet
1151 0 m 1,0,-1
 933 0 l 1,1,-1
 151 1618 l 1,2,-1
 379 1618 l 1,3,-1
 1151 0 l 1,0,-1
EndSplineSet
Validated: 1
EndChar

StartChar: bracketright
Encoding: 61 93 61
Width: 1302
VWidth: 1667
GlyphClass: 2
Flags: W
HStem: -182 182<151 735> 1436 182<151 735>
VStem: 735 208<0 1436>
LayerCount: 2
Fore
SplineSet
943 -182 m 5,0,-1
 151 -182 l 5,1,-1
 151 0 l 5,2,-1
 735 0 l 5,3,-1
 735 1436 l 1,4,-1
 151 1436 l 1,5,-1
 151 1618 l 1,6,-1
 943 1618 l 1,7,-1
 943 -182 l 5,0,-1
EndSplineSet
Validated: 1
EndChar

StartChar: asciicircum
Encoding: 62 94 62
Width: 1302
VWidth: 1667
GlyphClass: 2
Flags: W
HStem: 1029 589
LayerCount: 2
Fore
SplineSet
151 1029 m 1,0,-1
 547 1618 l 1,1,-1
 755 1618 l 1,2,-1
 1151 1029 l 1,3,-1
 923 1029 l 1,4,-1
 651 1462 l 1,5,-1
 379 1029 l 1,6,-1
 151 1029 l 1,0,-1
EndSplineSet
Validated: 1
EndChar

StartChar: underscore
Encoding: 63 95 63
Width: 1302
VWidth: 1667
GlyphClass: 2
Flags: W
HStem: 0 208<151 1151>
LayerCount: 2
Fore
SplineSet
151 0 m 5,0,-1
 151 208 l 5,1,-1
 1151 208 l 5,2,-1
 1151 0 l 5,3,-1
 151 0 l 5,0,-1
EndSplineSet
Validated: 1
EndChar

StartChar: grave
Encoding: 64 96 64
Width: 1302
VWidth: 1667
GlyphClass: 2
Flags: W
HStem: 900 718
VStem: 359 584
LayerCount: 2
Fore
SplineSet
943 900 m 1,0,-1
 359 1618 l 1,1,-1
 651 1618 l 1,2,-1
 943 1168 l 1,3,-1
 943 900 l 1,0,-1
EndSplineSet
Validated: 1
EndChar

StartChar: a
Encoding: 65 97 65
Width: 1302
VWidth: 1667
GlyphClass: 2
Flags: W
HStem: 0 182<421.732 963> 543 162<420.653 963> 907 172<255 898.942>
VStem: 151 198<244.261 476.347> 963 188<182 543 705 840.871>
LayerCount: 2
Back
SplineSet
-3707 1121 m 1053,0,-1
-2307 357 m 4,1,2
 -2307 182 -2307 182 -2005 182 c 6,3,-1
 -1693 182 l 5,4,-1
 -1693 543 l 5,5,-1
 -2005 543 l 6,6,7
 -2307 543 -2307 543 -2307 357 c 4,1,2
-2390 834 m 5,8,9
 -2337 1078 -2337 1078 -1935 1079 c 4,10,11
 -1505 1079 -1505 1079 -1505 704 c 6,12,-1
 -1505 0 l 5,13,-1
 -2003 0 l 6,14,15
 -2505 0 -2505 0 -2505 357 c 4,16,17
 -2505 705 -2505 705 -2005 705 c 6,18,-1
 -1693 705 l 5,19,20
 -1694 907 -1694 907 -1941 907 c 132,-1,21
 -2188 907 -2188 907 -2224 780 c 5,22,-1
 -2390 834 l 5,8,9
EndSplineSet
Fore
SplineSet
-1051 1121 m 1049,0,-1
349 357 m 0,1,2
 349 182 349 182 651 182 c 2,3,-1
 963 182 l 1,4,-1
 963 543 l 1,5,-1
 651 543 l 2,6,7
 349 543 349 543 349 357 c 0,1,2
715 907 m 8,8,9
 255 907 l 25,10,-1
 255 1079 l 25,11,12
 488 1079 488 1079 721 1079 c 0,13,14
 1151 1079 1151 1079 1151 704 c 2,15,-1
 1151 0 l 1,16,-1
 653 0 l 2,17,18
 151 0 151 0 151 357 c 0,19,20
 151 705 151 705 651 705 c 2,21,-1
 963 705 l 1,22,23
 962 907 962 907 715 907 c 8,8,9
EndSplineSet
Validated: 1
EndChar

StartChar: b
Encoding: 66 98 66
Width: 1302
VWidth: 1667
GlyphClass: 2
Flags: W
HStem: 0 182<359 869.75> 897 182<359 869.75> 1598 20G<151 359>
VStem: 151 208<182 897 1079 1618> 943 208<249.628 829.372>
LayerCount: 2
Back
SplineSet
-2300 0 m 2,0,-1
 -2800 0 l 1,1,-1
 -2800 1618 l 1,2,-1
 -2592 1618 l 1,3,-1
 -2592 1079 l 1,4,-1
 -2300 1079 l 2,5,6
 -1800 1079 -1800 1079 -1800 715 c 2,7,-1
 -1800 364 l 2,8,9
 -1800 0 -1800 0 -2300 0 c 2,0,-1
-2592 897 m 1,10,-1
 -2592 182 l 1,11,12
 -2300 182 l 0,13,14
 -2008 182 -2008 182 -2008 364 c 2,15,-1
 -2008 715 l 2,16,17
 -2008 897 -2008 897 -2300 897 c 2,18,19
 -2592 897 l 1,10,-1
EndSplineSet
Fore
SplineSet
651 0 m 2,0,-1
 151 0 l 1,1,-1
 151 1618 l 1,2,-1
 359 1618 l 1,3,-1
 359 1079 l 1,4,-1
 651 1079 l 2,5,6
 1151 1079 1151 1079 1151 715 c 2,7,-1
 1151 364 l 2,8,9
 1151 0 1151 0 651 0 c 2,0,-1
359 897 m 1,10,-1
 359 182 l 1,11,12
 651 182 l 0,13,14
 943 182 943 182 943 364 c 2,15,-1
 943 715 l 2,16,17
 943 897 943 897 651 897 c 2,18,19
 359 897 l 1,10,-1
EndSplineSet
Validated: 1
EndChar

StartChar: c
Encoding: 67 99 67
Width: 1302
VWidth: 1667
GlyphClass: 2
Flags: W
HStem: -0 182<432.25 1151> 897 182<432.25 1151>
VStem: 151 208<249.628 829.372>
LayerCount: 2
Back
SplineSet
-3702 182 m 128,-1,1
 -3410 182 -3410 182 -3410 364 c 1,2,-1
 -3202 364 l 1,3,4
 -3202 1 -3202 1 -3702 0 c 0,5,6
 -4202 0 -4202 0 -4202 364 c 2,7,-1
 -4202 715 l 2,8,9
 -4202 1079 -4202 1079 -3702 1079 c 0,10,11
 -3202 1078 -3202 1078 -3202 715 c 1,12,-1
 -3410 715 l 1,13,14
 -3410 897 -3410 897 -3702 897 c 0,15,16
 -3994 896 -3994 896 -3994 715 c 2,17,-1
 -3994 364 l 2,18,0
 -3994 182 -3994 182 -3702 182 c 128,-1,1
EndSplineSet
Fore
SplineSet
151 364 m 6,0,-1
 151 715 l 6,1,2
 151 1079 151 1079 651 1079 c 6,3,-1
 1151 1079 l 5,4,-1
 1151 897 l 5,5,-1
 651 897 l 5,6,7
 359 896 359 896 359 715 c 6,8,-1
 359 364 l 6,9,10
 359 182 359 182 651 182 c 6,11,-1
 1151 182 l 5,12,-1
 1151 -0 l 5,13,-1
 651 -0 l 6,14,15
 151 0 151 0 151 364 c 6,0,-1
EndSplineSet
Validated: 1
EndChar

StartChar: d
Encoding: 68 100 68
Width: 1302
VWidth: 1667
GlyphClass: 2
Flags: W
HStem: 0 182<432.25 943> 897 182<432.25 943> 1598 20G<943 1151>
VStem: 151 208<249.628 829.372> 943 208<182 897 1079 1618>
LayerCount: 2
Fore
SplineSet
651 0 m 2,0,1
 151 0 151 0 151 364 c 2,2,-1
 151 715 l 2,3,4
 151 1079 151 1079 651 1079 c 2,5,6
 943 1079 l 1,7,-1
 943 1618 l 1,8,-1
 1151 1618 l 1,9,-1
 1151 0 l 1,10,-1
 651 0 l 2,0,1
943 897 m 1,11,-1
 651 897 l 2,12,13
 359 897 359 897 359 715 c 2,14,-1
 359 364 l 2,15,16
 359 182 359 182 651 182 c 0,17,-1
 943 182 l 1,18,-1
 943 897 l 1,11,-1
EndSplineSet
Validated: 1
EndChar

StartChar: e
Encoding: 69 101 69
Width: 1302
VWidth: 1667
GlyphClass: 2
Flags: W
HStem: 0 182<432.25 1047> 449 181<359 943> 897 182<427.705 874.295>
VStem: 151 208<249.628 449 630 829.372> 943 208<630 829.372>
CounterMasks: 1 e0
LayerCount: 2
Back
SplineSet
-3439 630 m 1,0,-1
 -2835 630 l 1,1,-1
 -2835 715 l 2,2,3
 -2835 897 -2835 897 -3137 897 c 128,-1,4
 -3439 897 -3439 897 -3439 715 c 2,5,-1
 -3439 630 l 1,0,-1
-2659 273 m 1,6,7
 -2701 1 -2701 1 -3137 0 c 0,8,9
 -3637 0 -3637 0 -3637 364 c 2,10,-1
 -3637 715 l 2,11,12
 -3637 1079 -3637 1079 -3137 1079 c 128,-1,13
 -2637 1079 -2637 1079 -2637 715 c 2,14,-1
 -2637 449 l 1,15,-1
 -3439 449 l 1,16,-1
 -3439 364 l 2,17,18
 -3439 182 -3439 182 -3137 182 c 0,19,20
 -2874 182 -2874 182 -2864 273 c 1,21,-1
 -2659 273 l 1,6,7
EndSplineSet
Fore
SplineSet
1047 182 m 1,0,-1
 1047 0 l 1,1,2
 651 0 l 2,3,4
 151 0 151 0 151 364 c 2,5,-1
 151 715 l 2,6,7
 151 1079 151 1079 651 1079 c 128,-1,8
 1151 1079 1151 1079 1151 715 c 2,9,-1
 1151 449 l 1,10,-1
 359 449 l 1,11,-1
 359 364 l 2,12,13
 359 187 359 187 651 182 c 0,14,15
 1047 182 l 1,0,-1
359 630 m 1,16,-1
 943 630 l 1,17,-1
 943 715 l 2,18,19
 943 897 943 897 651 897 c 128,-1,20
 359 897 359 897 359 715 c 2,21,-1
 359 630 l 1,16,-1
EndSplineSet
Validated: 1
EndChar

StartChar: f
Encoding: 70 102 70
Width: 1302
VWidth: 1667
GlyphClass: 2
Flags: W
HStem: 0 21G<507 715> 897 182<151 507 715 1151> 1436 182<811.391 1151>
VStem: 507 208<0 897 1079 1349.18>
LayerCount: 2
Back
SplineSet
1189.08007812 1054.71972656 m 1,0,-1
 2137.13378906 1054.71972656 l 1025,1,-1
  Named: "f/t top-1236"
EndSplineSet
Fore
SplineSet
1151 1618 m 1,0,-1
 1151 1436 l 1,1,2
 715 1436 715 1436 715 1254 c 2,3,-1
 715 1079 l 1,4,-1
 1151 1079 l 1,5,-1
 1151 897 l 1,6,-1
 715 897 l 1,7,-1
 715 0 l 1,8,-1
 507 0 l 1,9,-1
 507 897 l 1,10,-1
 151 897 l 1,11,-1
 151 1079 l 1,12,-1
 507 1079 l 1,13,-1
 507 1254 l 2,14,15
 507 1618 507 1618 1151 1618 c 1,0,-1
EndSplineSet
Validated: 1
EndChar

StartChar: g
Encoding: 71 103 71
Width: 1302
VWidth: 1667
GlyphClass: 2
Flags: W
HStem: -539 181<255 869.75> 0 182<432.25 943> 897 182<432.25 943>
VStem: 151 208<249.628 829.372> 943 208<-290.058 0 182 897>
LayerCount: 2
Fore
SplineSet
651 -539 m 2,0,-1
 255 -539 l 1,1,-1
 255 -358 l 1,2,-1
 651 -358 l 2,3,4
 943 -358 943 -358 943 -176 c 2,5,-1
 943 0 l 1,6,-1
 651 0 l 2,7,8
 151 0 151 0 151 364 c 2,9,-1
 151 715 l 2,10,11
 151 1079 151 1079 651 1079 c 2,12,-1
 1151 1079 l 1,13,-1
 1151 -176 l 2,14,15
 1151 -539 1151 -539 651 -539 c 2,0,-1
943 182 m 1,16,-1
 943 897 l 1,17,18
 651 897 l 2,19,20
 359 897 359 897 359 715 c 2,21,-1
 359 364 l 2,22,23
 359 182 359 182 651 182 c 2,24,-1
 943 182 l 1,16,-1
EndSplineSet
Validated: 1
EndChar

StartChar: h
Encoding: 72 104 72
Width: 1302
VWidth: 1667
GlyphClass: 2
Flags: W
HStem: 0 21G<151 359 943 1151> 897 182<359 869.75> 1598 20G<151 359>
VStem: 151 208<0 897 1079 1618> 943 208<0 829.372>
LayerCount: 2
Fore
SplineSet
651 897 m 2,0,1
 359 897 l 1,2,-1
 359 0 l 1,3,-1
 151 0 l 1,4,-1
 151 1618 l 1,5,-1
 359 1618 l 1,6,-1
 359 1079 l 1,7,8
 505 1079 505 1079 651 1079 c 0,9,10
 1151 1079 1151 1079 1151 715 c 6,11,-1
 1151 0 l 1,12,-1
 943 0 l 1,13,-1
 943 715 l 6,14,15
 943 897 943 897 651 897 c 2,0,1
EndSplineSet
Validated: 1
EndChar

StartChar: i
Encoding: 73 105 73
Width: 1302
VWidth: 1667
GlyphClass: 2
Flags: W
HStem: 0 182<765.969 1151> 897 182<151 547> 1306 312<524.859 777.141>
VStem: 495 312<1335.86 1588.14> 547 208<187.221 897>
LayerCount: 2
Fore
SplineSet
807 1462 m 128,-1,1
 807 1306 807 1306 651 1306 c 128,-1,2
 495 1306 495 1306 495 1462 c 128,-1,3
 495 1618 495 1618 651 1618 c 128,-1,0
 807 1618 807 1618 807 1462 c 128,-1,1
547 273 m 2,4,-1
 547 897 l 1,5,-1
 151 897 l 1,6,-1
 151 1079 l 1,7,-1
 755 1079 l 1,8,-1
 755 273 l 2,9,10
 755 182 755 182 833 182 c 0,11,12
 1151 182 l 1,13,-1
 1151 0 l 1,14,-1
 833 0 l 0,15,16
 547 0 547 0 547 273 c 2,4,-1
EndSplineSet
Validated: 1
EndChar

StartChar: j
Encoding: 74 106 74
Width: 1302
VWidth: 1667
GlyphClass: 2
Flags: W
HStem: -539 182<151 661.75> 897 182<359 735> 1306 312<712.859 965.141>
VStem: 683 312<1335.86 1588.14> 735 208<-289.372 897>
LayerCount: 2
Fore
SplineSet
995 1462 m 128,-1,1
 995 1306 995 1306 839 1306 c 128,-1,2
 683 1306 683 1306 683 1462 c 128,-1,3
 683 1618 683 1618 839 1618 c 128,-1,0
 995 1618 995 1618 995 1462 c 128,-1,1
943 -175 m 2,4,5
 943 -539 943 -539 443 -539 c 2,6,-1
 151 -539 l 1,7,-1
 151 -357 l 1,8,-1
 443 -357 l 2,9,10
 735 -357 735 -357 735 -175 c 2,11,-1
 735 897 l 1,12,-1
 359 897 l 1,13,-1
 359 1079 l 1,14,-1
 943 1079 l 1,15,-1
 943 -175 l 2,4,5
EndSplineSet
Validated: 1
EndChar

StartChar: k
Encoding: 75 107 75
Width: 1302
VWidth: 1667
GlyphClass: 2
Flags: W
HStem: 0 21G<151 359 848.506 1151> 1059 20G<848.517 1151> 1598 20G<151 360>
VStem: 151 208<0 286 499 1618>
LayerCount: 2
Back
SplineSet
359 539 m 25,0,-1
 898 0 l 1025
1151 1080 m 1,2,-1
 359 286 l 1025
EndSplineSet
Fore
SplineSet
360 1618 m 5,0,-1
 359 499 l 5,1,-1
 866 1079 l 5,2,-1
 1151 1079 l 5,3,-1
 612 540 l 5,4,-1
 1151 0 l 5,5,-1
 866 0 l 5,6,-1
 496 423 l 5,7,-1
 359 286 l 5,8,-1
 359 0 l 5,9,-1
 151 0 l 5,10,-1
 151 1618 l 5,11,-1
 360 1618 l 5,0,-1
EndSplineSet
Validated: 1
EndChar

StartChar: l
Encoding: 76 108 76
Width: 1302
VWidth: 1667
GlyphClass: 2
Flags: W
HStem: 0 182<765.969 1151> 1436 182<151 547>
VStem: 547 208<187.221 1436>
LayerCount: 2
Fore
SplineSet
755 273 m 5,0,1
 755 182 755 182 833 182 c 0,2,-1
 1151 182 l 1,3,-1
 1151 0 l 1,4,-1
 833 0 l 0,5,6
 547 0 547 0 547 273 c 6,7,-1
 547 1436 l 1,8,-1
 151 1436 l 1,9,-1
 151 1618 l 1,10,-1
 755 1618 l 1,11,-1
 755 273 l 5,0,1
EndSplineSet
Validated: 1
EndChar

StartChar: m
Encoding: 77 109 77
Width: 1302
VWidth: 1667
GlyphClass: 2
Flags: W
HStem: 0 21G<92 300 547 755 1002 1210> 897 182<300 547 755 928.75>
VStem: 92 208<0 897> 547 208<0 895> 1002 208<0 829.372>
CounterMasks: 1 38
LayerCount: 2
Fore
SplineSet
92 1079 m 1,0,-1
 710 1079 l 2,1,2
 1210 1079 1210 1079 1210 715 c 6,3,-1
 1210 0 l 1,4,-1
 1002 0 l 1,5,-1
 1002 715 l 2,6,7
 1002 877 1002 877 755 895 c 1,8,-1
 755 0 l 1,9,-1
 547 0 l 1,10,-1
 547 897 l 1,11,12
 300 897 l 1,13,-1
 300 0 l 1,14,-1
 92 0 l 1,15,-1
 92 1079 l 1,0,-1
EndSplineSet
Validated: 1
EndChar

StartChar: n
Encoding: 78 110 78
Width: 1302
VWidth: 1667
GlyphClass: 2
Flags: W
HStem: 0 21G<151 359 943 1151> 897 182<359 869.75>
VStem: 151 208<0 897> 943 208<0 827.949>
LayerCount: 2
Fore
SplineSet
651 897 m 2,0,1
 359 897 l 1,2,-1
 359 0 l 1,3,-1
 151 0 l 1,4,-1
 151 1079 l 1,5,-1
 651 1079 l 1,6,7
 1151 1074 1151 1074 1151 715 c 6,8,-1
 1151 0 l 1,9,-1
 943 0 l 1,10,-1
 943 715 l 6,11,12
 943 897 943 897 651 897 c 2,0,1
EndSplineSet
Validated: 1
EndChar

StartChar: o
Encoding: 79 111 79
Width: 1302
VWidth: 1667
GlyphClass: 2
Flags: W
HStem: 0 182<427.705 874.295> 897 182<427.705 874.295>
VStem: 151 208<249.628 829.372> 943 208<249.628 829.372>
LayerCount: 2
Back
SplineSet
651 618 m 25,0,-1
 342 1236 l 1049
651 618 m 25,2,-1
 151 854 l 1049
651 618 m 25,4,-1
 460 1236 l 1049
150 1236 m 1,0,-1
 651 618 l 1025,1,-1
NamedP: "center"
EndSplineSet
Fore
SplineSet
1660 602 m 1029,0,-1
359 715 m 6,1,-1
 359 364 l 6,2,3
 359 182 359 182 651 182 c 132,-1,4
 943 182 943 182 943 364 c 6,5,-1
 943 715 l 6,6,7
 943 897 943 897 651 897 c 132,-1,8
 359 897 359 897 359 715 c 6,1,-1
1151 715 m 6,9,-1
 1151 364 l 6,10,11
 1151 0 1151 0 651 0 c 132,-1,12
 151 0 151 0 151 364 c 6,13,-1
 151 715 l 6,14,15
 151 1079 151 1079 651 1079 c 132,-1,16
 1151 1079 1151 1079 1151 715 c 6,9,-1
EndSplineSet
Validated: 1
EndChar

StartChar: p
Encoding: 80 112 80
Width: 1302
VWidth: 1667
GlyphClass: 2
Flags: W
HStem: -539 21G<151 359> 0 182<359 869.75> 897 182<359 869.75>
VStem: 151 208<-539 0 182 897> 943 208<249.628 829.372>
LayerCount: 2
Fore
SplineSet
651 1079 m 2,0,1
 1151 1079 1151 1079 1151 715 c 2,2,-1
 1151 364 l 6,3,4
 1151 0 1151 0 651 0 c 2,5,6
 359 0 l 1,7,-1
 359 -539 l 1,8,-1
 151 -539 l 1,9,-1
 151 1079 l 1,10,-1
 651 1079 l 2,0,1
359 182 m 1,11,-1
 651 182 l 2,12,13
 943 182 943 182 943 364 c 6,14,-1
 943 715 l 2,15,16
 943 897 943 897 651 897 c 0,17,-1
 359 897 l 1,18,-1
 359 182 l 1,11,-1
EndSplineSet
Validated: 1
EndChar

StartChar: q
Encoding: 81 113 81
Width: 1302
VWidth: 1667
GlyphClass: 2
Flags: W
HStem: -539 21G<943 1151> 0 182<432.25 943> 897 182<432.25 943>
VStem: 151 208<249.628 829.372> 943 208<-539 0 182 897>
LayerCount: 2
Fore
SplineSet
651 1079 m 2,0,1
 1151 1079 l 1,2,-1
 1151 -539 l 1,3,-1
 943 -539 l 1,4,-1
 943 0 l 1,5,-1
 651 0 l 2,6,7
 151 0 151 0 151 364 c 6,8,-1
 151 715 l 2,9,10
 151 1079 151 1079 651 1079 c 2,0,1
943 182 m 1,11,-1
 943 897 l 1,12,-1
 651 897 l 0,13,14
 359 897 359 897 359 715 c 2,15,16
 359 364 l 6,17,18
 359 182 359 182 651 182 c 2,19,-1
 943 182 l 1,11,-1
EndSplineSet
Validated: 1
EndChar

StartChar: r
Encoding: 82 114 82
Width: 1302
VWidth: 1488
GlyphClass: 2
Flags: W
HStem: 0 21G<151 359> 897 182<668.375 1151>
VStem: 151 208<0 693.938 897 1079>
LayerCount: 2
Fore
SplineSet
359 897 m 1,0,1
 531 1078 531 1078 1151 1079 c 1,2,-1
 1151 897 l 1,3,4
 359 897 359 897 359 536 c 2,5,-1
 359 0 l 1,6,-1
 151 0 l 1,7,-1
 151 1079 l 1,8,-1
 359 1079 l 1,9,-1
 359 897 l 1,0,1
EndSplineSet
Validated: 1
EndChar

StartChar: s
Encoding: 83 115 83
Width: 1302
VWidth: 1667
GlyphClass: 2
Flags: W
HStem: 0 182<255 924.75> 897 182<377.25 1151>
VStem: 151 208<723.732 865.405> 943 208<213.595 354.252>
LayerCount: 2
Back
SplineSet
-2363 182 m 128,-1,1
 -2071 182 -2071 182 -2071 270 c 0,2,3
 -2071 404 -2071 404 -2423 473 c 0,4,5
 -2863 560 -2863 560 -2863 809 c 0,6,7
 -2863 1079 -2863 1079 -2363 1079 c 0,8,9
 -1863 1078 -1863 1078 -1863 809 c 1,10,-1
 -2071 809 l 1,11,12
 -2071 897 -2071 897 -2363 897 c 128,-1,13
 -2655 897 -2655 897 -2655 809 c 0,14,15
 -2655 672 -2655 672 -2303 604 c 0,16,17
 -1863 518 -1863 518 -1863 270 c 0,18,19
 -1863 0 -1863 0 -2363 0 c 0,20,21
 -2863 1 -2863 1 -2863 270 c 1,22,-1
 -2655 270 l 1,23,0
 -2655 182 -2655 182 -2363 182 c 128,-1,1
151 0 m 1,0,-1
 1151 1079 l 1049
EndSplineSet
Fore
SplineSet
581 463 m 4,0,1
 151 548 151 548 151 809 c 4,2,3
 151 1079 151 1079 651 1079 c 6,4,5
 1151 1079 l 5,6,-1
 1151 897 l 5,7,8
 651 897 l 4,9,10
 359 897 359 897 359 809 c 4,11,12
 359 684 359 684 721 614 c 4,13,14
 1151 530 1151 530 1151 270 c 4,15,16
 1151 0 1151 0 651 0 c 6,17,18
 255 0 l 5,19,-1
 255 182 l 5,20,21
 651 182 l 4,22,23
 943 182 943 182 943 270 c 4,24,25
 943 392 943 392 581 463 c 4,0,1
EndSplineSet
Validated: 1
EndChar

StartChar: t
Encoding: 84 116 84
Width: 1302
VWidth: 1667
GlyphClass: 2
Flags: W
HStem: 0 182<811.391 1151> 897 182<151 507 715 1151>
VStem: 507 208<268.823 897 1079 1436>
LayerCount: 2
Fore
SplineSet
507 364 m 2,0,-1
 507 897 l 1,1,-1
 151 897 l 1,2,-1
 151 1079 l 1,3,-1
 507 1079 l 1,4,-1
 507 1436 l 1,5,-1
 715 1436 l 1,6,-1
 715 1079 l 1,7,-1
 1151 1079 l 1,8,-1
 1151 897 l 1,9,-1
 715 897 l 1,10,-1
 715 364 l 2,11,12
 715 182 715 182 1151 182 c 1,13,-1
 1151 0 l 1,14,15
 507 0 507 0 507 364 c 2,0,-1
EndSplineSet
Validated: 1
EndChar

StartChar: u
Encoding: 85 117 85
Width: 1302
VWidth: 1667
GlyphClass: 2
Flags: W
HStem: 0 182<432.25 943> 1059 20G<151 359 943 1151>
VStem: 151 208<249.628 1079> 943 208<182 1079>
LayerCount: 2
Fore
SplineSet
651 182 m 2,0,1
 943 182 l 1,2,-1
 943 1079 l 1,3,-1
 1151 1079 l 1,4,-1
 1151 0 l 1,5,-1
 651 0 l 1,6,7
 151 0 151 0 151 364 c 2,8,-1
 151 1079 l 1,9,-1
 359 1079 l 1,10,-1
 359 364 l 2,11,12
 359 182 359 182 651 182 c 2,0,1
EndSplineSet
Validated: 1
EndChar

StartChar: v
Encoding: 86 118 86
Width: 1302
VWidth: 1667
GlyphClass: 2
Flags: W
HStem: 0 21G<530.456 773.507> 1059 20G<131 361.713 968.579 1171>
LayerCount: 2
Fore
SplineSet
131 1079 m 1,0,-1
 354 1079 l 1,1,-1
 671 257 l 1,2,-1
 976 1079 l 1,3,-1
 1171 1079 l 1,4,-1
 766 0 l 1,5,-1
 538 0 l 1,6,-1
 131 1079 l 1,0,-1
EndSplineSet
Validated: 1
EndChar

StartChar: w
Encoding: 87 119 87
Width: 1302
VWidth: 1667
GlyphClass: 2
Flags: W
HStem: 1060 20G<72 280 1022 1230>
VStem: 72 208<239 1080> 1022 208<239 1080>
LayerCount: 2
Fore
SplineSet
755 718 m 1,0,1
 891 239 891 239 1022 239 c 1,2,-1
 1022 1080 l 1,3,-1
 1230 1080 l 1,4,-1
 1230 0 l 1,5,6
 822 0 822 0 651 520 c 5,7,8
 480 0 480 0 72 0 c 1,9,-1
 72 1080 l 1,10,-1
 280 1080 l 1,11,-1
 280 239 l 1,12,13
 411 239 411 239 547 718 c 1,14,-1
 755 718 l 1,0,1
EndSplineSet
Validated: 1
EndChar

StartChar: x
Encoding: 88 120 88
Width: 1302
VWidth: 1667
GlyphClass: 2
Flags: W
HStem: 0 21G<151 392.634 909.366 1151> 1059 20G<151 391.77 910.23 1151>
LayerCount: 2
Fore
SplineSet
379 0 m 1,0,-1
 151 0 l 1,1,-1
 556 539 l 1,2,-1
 151 1079 l 1,3,-1
 379 1079 l 1,4,-1
 651 653 l 1,5,-1
 923 1079 l 1,6,-1
 1151 1079 l 1,7,-1
 746 539 l 1,8,-1
 1151 0 l 1,9,-1
 923 0 l 1,10,-1
 651 399 l 1,11,-1
 379 0 l 1,0,-1
EndSplineSet
Validated: 1
EndChar

StartChar: y
Encoding: 89 121 89
Width: 1302
VWidth: 1667
GlyphClass: 2
Flags: W
HStem: -539 181<255 869.75> 0 182<432.25 943> 1059 20G<151 359 943 1151>
VStem: 151 208<249.628 1079> 943 208<-290.058 0 182 1079>
LayerCount: 2
Back
SplineSet
719.693359375 938.666992188 m 25,0,-1
 719.693359375 -768 l 1049,1,-1
EndSplineSet
Fore
SplineSet
359 1079 m 25,0,-1
 359 364 l 18,1,2
 359 182 359 182 651 182 c 10,3,-1
 943 182 l 1,4,-1
 943 1079 l 1,5,-1
 1151 1079 l 1,6,-1
 1151 -176 l 18,7,8
 1151 -539 1151 -539 651 -539 c 10,9,-1
 255 -539 l 1,10,-1
 255 -358 l 1,11,-1
 651 -358 l 18,12,13
 943 -358 943 -358 943 -176 c 10,14,-1
 943 0 l 1,15,-1
 651 0 l 18,16,17
 151 0 151 0 151 364 c 10,18,-1
 151 1079 l 25,19,20
 359 1079 l 25,0,-1
EndSplineSet
Validated: 1
EndChar

StartChar: z
Encoding: 90 122 90
Width: 1302
VWidth: 1667
GlyphClass: 2
Flags: W
HStem: 0 182<419 1151> 897 182<151 883>
LayerCount: 2
Fore
SplineSet
883 897 m 1,0,-1
 151 897 l 1,1,-1
 151 1079 l 1,2,-1
 1151 1079 l 1,3,-1
 1151 897 l 1,4,-1
 419 182 l 5,5,-1
 1151 182 l 1,6,-1
 1151 0 l 1,7,-1
 151 0 l 1,8,-1
 151 182 l 1,9,-1
 883 897 l 1,0,-1
EndSplineSet
Validated: 1
EndChar

StartChar: braceleft
Encoding: 91 123 91
Width: 1302
VWidth: 1667
GlyphClass: 2
Flags: W
HStem: -358 182<828.812 1151> 539 182<151 482.84> 1436 182<828.812 1151>
VStem: 547 208<-108.372 474.838 785.162 1368.37>
CounterMasks: 1 e0
LayerCount: 2
Fore
SplineSet
1151 -358 m 5,0,-1
 1048 -358 l 6,1,2
 547 -358 547 -358 547 6 c 6,3,-1
 547 357 l 6,4,5
 547 539 547 539 255 539 c 6,6,-1
 151 539 l 5,7,-1
 151 721 l 5,8,-1
 255 721 l 6,9,10
 547 721 547 721 547 903 c 6,11,-1
 547 1254 l 6,12,13
 547 1618 547 1618 1048 1618 c 6,14,-1
 1151 1618 l 5,15,-1
 1151 1436 l 5,16,-1
 1048 1436 l 6,17,18
 755 1436 755 1436 755 1254 c 6,19,-1
 755 903 l 6,20,21
 755 740 755 740 607 630 c 5,22,23
 755 520 755 520 755 357 c 6,24,-1
 755 6 l 6,25,26
 755 -176 755 -176 1048 -176 c 6,27,-1
 1151 -176 l 5,28,-1
 1151 -358 l 5,0,-1
EndSplineSet
Validated: 1
EndChar

StartChar: bar
Encoding: 92 124 92
Width: 1302
VWidth: 1667
GlyphClass: 2
Flags: W
HStem: 1598 20G<547 755>
VStem: 547 208<-182 1617>
LayerCount: 2
Fore
SplineSet
547 -182 m 1,0,-1
 547 1617 l 1,1,-1
 755 1618 l 1,2,-1
 755 -182 l 1,3,-1
 547 -182 l 1,0,-1
EndSplineSet
Validated: 1
EndChar

StartChar: braceright
Encoding: 93 125 93
Width: 1302
VWidth: 1667
GlyphClass: 2
Flags: W
HStem: -358 182<151 473.188> 539 182<819.16 1151> 1436 182<151 473.188>
VStem: 547 208<-108.372 474.838 785.162 1368.37>
CounterMasks: 1 e0
LayerCount: 2
Fore
SplineSet
151 -358 m 1,0,-1
 151 -176 l 1,1,-1
 254 -176 l 2,2,3
 547 -176 547 -176 547 6 c 2,4,-1
 547 357 l 2,5,6
 547 520 547 520 695 630 c 1,7,8
 547 740 547 740 547 903 c 2,9,-1
 547 1254 l 2,10,11
 547 1436 547 1436 254 1436 c 2,12,-1
 151 1436 l 1,13,-1
 151 1618 l 1,14,-1
 254 1618 l 2,15,16
 755 1618 755 1618 755 1254 c 2,17,-1
 755 903 l 2,18,19
 755 721 755 721 1047 721 c 2,20,-1
 1151 721 l 1,21,-1
 1151 539 l 1,22,-1
 1047 539 l 2,23,24
 755 539 755 539 755 357 c 2,25,-1
 755 6 l 2,26,27
 755 -358 755 -358 254 -358 c 2,28,-1
 151 -358 l 1,0,-1
EndSplineSet
Validated: 1
EndChar

StartChar: asciitilde
Encoding: 94 126 94
Width: 1302
VWidth: 1911
GlyphClass: 2
Flags: W
HStem: 446 208<810.178 959.672> 936 208<289.328 436.083>
VStem: 61 208<582 921.527> 980 208<668.473 1008>
LayerCount: 2
Back
SplineSet
359 1144 m 1,0,-1
 943 474 l 1025
61 1144 m 1,2,-1
 1241 474 l 1025
61 474 m 1,4,-1
 1241 1144 l 1025
61 474 m 1,6,-1
 61 1144 l 1,7,-1
 1241 1144 l 1,8,-1
 1241 474 l 1,9,-1
 61 474 l 1,6,-1
EndSplineSet
Fore
SplineSet
712 845 m 24,0,1
 817 654 817 654 898 654 c 0,2,3
 980 654 980 654 980 848 c 2,4,-1
 980 1028 l 1,5,-1
 1188 1008 l 1,6,-1
 1188 783 l 2,7,8
 1188 446 1188 446 890 446 c 0,9,10
 712 446 712 446 537 745 c 24,11,12
 425 936 425 936 351 936 c 0,13,14
 269 936 269 936 269 742 c 2,15,-1
 269 562 l 1,16,-1
 61 582 l 1,17,-1
 61 807 l 2,18,19
 61 1144 61 1144 359 1144 c 0,20,21
 548 1144 548 1144 712 845 c 24,0,1
EndSplineSet
Validated: 1
EndChar
